<svg width="40" height="40" viewBox="0 0 40 40" fill="none" xmlns="http://www.w3.org/2000/svg">
<path d="M19.9997 33.3333C27.333 33.3333 33.333 27.3333 33.333 19.9999C33.333 12.6666 27.333 6.66659 19.9997 6.66659C12.6663 6.66659 6.66634 12.6666 6.66634 19.9999C6.66634 27.3333 12.6663 33.3333 19.9997 33.3333ZM19.9997 3.33325C29.1663 3.33325 36.6663 10.8333 36.6663 19.9999C36.6663 29.1666 29.1663 36.6666 19.9997 36.6666C10.833 36.6666 3.33301 29.1666 3.33301 19.9999C3.33301 10.8333 10.833 3.33325 19.9997 3.33325ZM28.333 19.1666V21.6666H18.333V11.6666H20.833V19.1666H28.333Z" fill="#4F4F4E"/>
</svg>
