<svg width="291" height="109" viewBox="0 0 291 109" fill="none" xmlns="http://www.w3.org/2000/svg">
<path d="M210.35 38.9193C219.879 51.5013 225.771 65.4808 235.496 77.9204L235.542 77.9652C236.144 78.5768 236.913 77.7116 236.431 77.085C229.416 68.1522 224.432 58.4234 218.636 49.0005C228.255 61.2961 236.931 73.5781 250.729 82.0526C251.226 82.3658 251.98 81.7095 251.588 81.2023C251.523 81.1169 251.459 81.0318 251.394 80.9467L251.407 80.9338C251.393 80.925 251.379 80.9163 251.365 80.9076C244.296 71.5681 239.89 63.8234 234.875 55.8457C245.223 68.1056 255.485 77.7872 271.853 87.0947C271.986 87.1734 272.144 87.2012 272.296 87.1727C272.448 87.1442 272.584 87.0615 272.679 86.9401C272.774 86.8188 272.82 86.6674 272.81 86.5144C272.799 86.3614 272.732 86.2176 272.622 86.1102C266.981 79.5849 261.203 72.6565 255.326 65.6341C262.382 72.0127 269.848 77.693 277.895 82.0526C278.408 82.336 279.146 81.7393 278.754 81.2023C274.597 75.4211 270.079 69.7276 265.342 64.1489C270.593 68.435 275.827 72.6146 280.668 76.8067C280.717 76.8703 280.779 76.9237 280.849 76.9638C280.919 77.0039 280.997 77.0299 281.077 77.0403C281.158 77.0507 281.24 77.0453 281.318 77.0244C281.396 77.0035 281.47 76.9675 281.534 76.9186C281.598 76.8696 281.652 76.8085 281.693 76.7389C281.733 76.6693 281.759 76.5925 281.77 76.5128C281.78 76.4332 281.775 76.3523 281.754 76.2747C281.733 76.1972 281.696 76.1245 281.647 76.0608C281.61 75.9977 281.572 75.9348 281.535 75.8719L281.541 75.8669C281.535 75.8612 281.528 75.8556 281.522 75.8499C276.021 66.6302 267.486 59.3325 259.411 51.7852C267.078 57.5408 275.505 62.5593 283.106 68.1836C283.603 68.5565 284.116 67.9449 284.04 67.4825C282.754 60.0795 276.51 55.2955 270.784 50.2669C276.836 53.6572 283.704 56.0055 289.247 60.0339C289.805 60.4367 290.414 59.5415 290.106 59.1836C290.035 59.1009 289.88 59.0195 289.88 59.0195C282.437 53.5448 272.546 51.1732 265.57 45.2062C265.449 45.1108 265.296 45.063 265.141 45.0719C264.986 45.0807 264.84 45.1457 264.73 45.2543C264.62 45.363 264.555 45.5077 264.546 45.6611C264.537 45.8145 264.585 45.9658 264.681 46.0863C270.53 52.7463 279.984 57.6179 282.438 66.0448C270.551 57.4716 256.892 50.1739 247.399 39.1198C246.872 38.5082 246.028 39.3883 246.51 39.9999C246.535 40.0308 246.559 40.0617 246.583 40.0925C246.579 40.0965 246.575 40.1004 246.571 40.1043C246.658 40.2061 246.746 40.3076 246.834 40.4088C256.088 52.0055 269.64 60.9404 278.217 73.0411C272.427 68.1898 266.222 63.3085 260.188 58.2169C252.248 49.2727 243.857 40.6586 235.622 32.4914C235.573 32.4184 235.524 32.3453 235.476 32.2721L235.433 32.3046C235.417 32.2888 235.401 32.273 235.385 32.2572C234.888 31.7649 233.999 32.4063 234.406 33.003C240.862 42.8263 250.065 51.3982 259.67 59.4628C265.448 65.988 270.981 72.6845 276.022 79.5102C265.765 73.5262 256.455 65.4271 247.714 56.5747C237.8 44.8469 227.654 33.2255 217.446 23.1354C217.325 23.04 217.172 22.9922 217.017 23.0011C216.862 23.01 216.716 23.075 216.606 23.1836C216.496 23.2922 216.431 23.437 216.422 23.5904C216.413 23.7438 216.461 23.8951 216.557 24.0156C226.335 34.7073 236.276 46.7947 247.087 57.7293C254.655 66.6753 262.088 75.6801 269.303 84.1065C248.544 71.6637 237.993 58.2774 222.751 38.5977L222.725 38.6175C222.684 38.5662 222.642 38.5148 222.601 38.4634C222.164 37.9264 221.184 38.6573 221.606 39.2242C223.189 41.2612 224.722 43.2319 226.221 45.1419C234.853 56.9248 239.389 66.6409 248.492 79.0415C232.744 68.2247 223.892 52.2609 211.1 37.8369C210.633 37.3147 209.684 38.0308 210.105 38.5977C210.145 38.6492 210.184 38.7007 210.223 38.7523L210.211 38.7618C210.257 38.8143 210.304 38.8668 210.35 38.9193Z" fill="#EFEB4C"/>
<path d="M32.9667 23.9621C36.8234 22.6284 40.557 20.9715 44.1273 19.0094C43.943 18.6393 43.7443 18.2646 43.5412 17.9042C30.4376 26.9541 16.6162 34.9671 3.60649 44.1713C3.03476 44.5866 3.72727 45.5531 4.3288 45.1941C21.8319 34.643 39.5984 24.815 59.6267 19.7726L59.0605 18.7049C42.82 30.1662 26.2018 41.1188 9.65202 52.1552L10.3788 53.1637C31.8131 38.2145 55.5155 26.8183 81.2457 21.2599C81.0991 20.8703 80.9668 20.4851 80.8158 20.1097C58.1431 34.172 33.7483 45.2581 10.1112 57.4561L10.6972 58.5613C34.0653 44.9508 58.7103 33.1145 85.5091 27.8744L84.9429 26.8066C67.9456 39.5787 49.2962 49.9592 30.4394 59.7905L31.1617 60.8132C46.9716 47.9514 65.1128 38.4905 83.7976 30.3716L83.0753 29.3489C70.8907 40.3582 56.2773 48.0768 42.7461 57.3838C42.1035 57.8239 42.6464 58.9156 43.3322 58.489C56.1479 50.4819 69.8415 43.9392 84.1533 38.9847L83.4707 38.0369C79.1071 46.5978 69.9579 52.0852 61.9053 56.993C61.7774 57.0792 61.6862 57.2093 61.649 57.3584C61.6119 57.5074 61.6313 57.6652 61.7036 57.8016C61.776 57.938 61.8962 58.0436 62.0414 58.0983C62.1866 58.153 62.3468 58.1529 62.4913 58.0982C70.9294 54.4829 79.1403 50.281 87.8774 47.2749L87.3112 46.2071C80.4157 53.727 71.7003 59.2405 64.2247 66.1415C63.7858 66.5357 64.1664 67.3892 64.7909 67.2092C75.1198 64.0596 84.4712 58.026 95.4024 56.94L94.7342 55.9967C92.4956 59.4233 91.1274 63.2468 88.3392 66.361C88.2348 66.4643 88.1704 66.6009 88.1572 66.7469C88.1441 66.8929 88.183 67.0392 88.2671 67.1602C88.3513 67.2813 88.4754 67.3695 88.6179 67.4095C88.7604 67.4496 88.9123 67.4388 89.0471 67.3793C94.5805 64.8257 100.567 64.2579 106.287 62.4192L105.721 61.3515C103.104 63.9155 100.793 66.7697 98.833 69.8583C98.7582 69.9742 98.7242 70.1116 98.7363 70.2491C98.7483 70.3866 98.8058 70.5166 98.8997 70.6189C98.9936 70.7213 99.1187 70.7902 99.2557 70.8151C99.3926 70.84 99.5338 70.8194 99.6573 70.7566C106.499 66.5608 114.698 65.0876 122.619 66.6308C123.413 66.7693 123.782 65.5875 122.989 65.449C114.756 63.7975 106.217 65.2884 99.0801 69.6229L99.9089 70.507C101.817 67.528 104.069 64.7805 106.618 62.3195C107.057 61.9252 106.667 61.0531 106.038 61.2473C100.228 63.1204 94.0475 63.7528 88.5097 66.3205L89.2364 67.329C92.037 64.1249 93.475 60.2294 95.7204 56.6799C95.7843 56.5759 95.8161 56.4555 95.8119 56.3335C95.8076 56.2114 95.7676 56.0931 95.6966 55.9929C95.6257 55.8928 95.5269 55.8152 95.4124 55.7696C95.298 55.7241 95.1728 55.7126 95.0523 55.7366C84.1067 56.8181 74.7741 62.842 64.4407 66.0058L65.0069 67.0735C72.5312 60.2189 81.313 54.695 88.1421 47.1856C88.519 46.7876 88.2281 45.8997 87.5759 46.1179C78.7525 49.097 70.4553 53.272 61.9053 56.993C62.1084 57.3534 62.307 57.728 62.4913 58.0982C70.7411 53.0644 80.0211 47.4617 84.5689 38.6144C84.7787 38.1955 84.4721 37.4589 83.8863 37.6666C69.4959 42.6631 55.7258 49.2496 42.8348 57.3021C43.0379 57.6625 43.2222 58.0327 43.4208 58.4073C56.9797 49.0621 71.7017 41.2992 83.9561 30.218C84.0223 30.1719 84.0786 30.1134 84.1219 30.0456C84.1652 29.9779 84.1945 29.9023 84.2082 29.8231C84.222 29.744 84.2198 29.6628 84.202 29.5843C84.1841 29.5058 84.1508 29.4314 84.104 29.3655C84.0572 29.2996 83.9979 29.2434 83.9293 29.2001C83.8608 29.1568 83.7844 29.1273 83.7045 29.1132C83.6246 29.0991 83.5428 29.1008 83.4637 29.1181C83.3847 29.1354 83.3099 29.1679 83.2437 29.214C64.4415 37.4056 46.1664 46.8403 30.3586 59.7965C29.7924 60.2447 30.4496 61.1221 31.071 60.8005C50.0373 50.9722 68.7278 40.5108 85.8094 27.6712C86.3434 27.2754 85.8167 26.4857 85.2432 26.6035C58.3214 31.8834 33.5734 43.7969 10.1112 57.4561C9.98328 57.5424 9.89209 57.6724 9.85491 57.8215C9.81773 57.9706 9.83716 58.1283 9.9095 58.2647C9.98185 58.4012 10.1021 58.5068 10.2473 58.5614C10.3925 58.6161 10.5526 58.6161 10.6972 58.5613C34.3953 46.3198 58.747 35.2202 81.4196 21.158C81.5571 21.0883 81.6638 20.971 81.7194 20.8281C81.7751 20.6853 81.7759 20.5268 81.7217 20.3828C81.6675 20.2388 81.5621 20.1191 81.4253 20.0466C81.2886 19.974 81.1301 19.9535 80.9797 19.989C54.9993 25.6411 31.1473 37.1625 9.47261 52.2242C8.90089 52.6395 9.61771 53.6292 10.1949 53.2469C26.8289 42.143 43.5845 31.1552 59.8794 19.5702C60.4046 19.2029 59.8812 18.3518 59.3132 18.5025C39.224 23.5883 21.3102 33.4329 3.75609 44.0462L4.46847 45.0501C17.394 35.9134 31.1168 27.9634 44.1837 18.9802C44.8308 18.5259 44.3553 17.4709 43.5977 17.875C40.124 19.7908 36.4917 21.4112 32.7395 22.719C31.9688 22.9627 32.2946 24.1429 33.0232 23.9329L32.9667 23.9621Z" fill="#28BFEC"/>
<path d="M139.616 74.0399C153.09 68.7211 166.889 63.9797 179.344 56.4435C179.817 56.1542 179.329 55.5074 178.862 55.761C157.099 67.5668 137.076 82.3181 116.908 96.5533C116.456 96.8658 116.923 97.4894 117.39 97.2357C142.73 83.3625 167.343 67.3824 195.588 59.9989L195.303 59.2172C180.46 66.7844 165.41 74.0834 152.768 85.1346C152.378 85.4854 152.803 86.1386 153.25 85.817C165.548 77.1238 177.583 67.7484 192.279 63.4918L191.884 62.7593C186.363 65.9374 181.323 69.8852 176.914 74.4839C176.642 74.7815 177 75.3334 177.375 75.143C182.718 72.5669 188.005 69.8631 193.569 67.7795L193.1 67.1245C191.326 69.5218 189.556 71.9251 187.788 74.3346C187.561 74.634 187.846 75.1964 188.249 74.9937C193.813 72.2746 199.161 69.1481 204.663 66.3145L204.278 65.5778C201.099 67.9706 198.622 71.1444 195.444 73.5372C195.365 73.6056 195.315 73.7005 195.303 73.8036C195.291 73.9067 195.317 74.0107 195.377 74.0956C195.437 74.1804 195.526 74.24 195.628 74.2629C195.729 74.2858 195.835 74.2704 195.926 74.2196C199.854 71.6654 204.402 71.0034 208.814 69.7449C209.335 69.5875 209.04 68.8099 208.524 68.9541C204.026 70.2403 199.432 70.9452 195.444 73.5372L195.926 74.2196C199.104 71.8268 201.581 68.653 204.76 66.2603C205.12 65.9887 204.813 65.3046 204.419 65.5032C198.922 68.3459 193.564 71.4765 188.009 74.1915L188.469 74.8507L193.79 67.6365C193.846 67.565 193.877 67.4773 193.879 67.3865C193.881 67.2958 193.853 67.2069 193.801 67.1331C193.748 67.0594 193.672 67.0047 193.586 66.9774C193.499 66.95 193.406 66.9515 193.321 66.9815C187.761 69.0518 182.465 71.7597 177.135 74.3409L177.6 75.0091C181.959 70.4604 186.947 66.5583 192.412 63.4212C192.843 63.1616 192.465 62.5641 192.026 62.6846C177.266 66.9699 165.176 76.3699 152.777 85.1305L153.259 85.8129C165.854 74.8045 180.819 67.5333 195.597 59.9948C195.687 59.9473 195.756 59.869 195.793 59.7743C195.829 59.6795 195.83 59.5748 195.795 59.4795C195.761 59.3842 195.692 59.3047 195.604 59.2557C195.515 59.2068 195.411 59.1916 195.312 59.2131C166.999 66.6162 142.317 82.6382 116.917 96.5492L117.399 97.2316C137.594 82.9841 157.578 68.2177 179.354 56.4394L178.872 55.757C166.469 63.2149 152.737 67.959 139.336 73.245C139.231 73.2834 139.146 73.3618 139.099 73.4631C139.052 73.5644 139.047 73.6803 139.085 73.7851C139.124 73.89 139.202 73.9753 139.303 74.0223C139.405 74.0693 139.521 74.0742 139.625 74.0358L139.616 74.0399Z" fill="#C24CEF"/>
</svg>
