<svg width="146" height="60" viewBox="0 0 146 60" fill="none" xmlns="http://www.w3.org/2000/svg">
<path d="M123.897 20.1988C120.613 17.7757 117.543 15.0809 114.721 12.1433C115.007 11.845 115.308 11.5466 115.61 11.2632C125.418 23.8089 136.221 35.5788 145.895 48.2439C146.316 48.8107 145.367 49.5268 144.9 49.0047C131.34 33.7142 117.312 19.0353 99.6989 8.24984L100.558 7.39954C112.641 23.1823 125.238 38.5922 137.743 54.0617L136.749 54.8076C120.748 34.1468 101.522 16.2009 78.62 3.22262C78.8761 2.89443 79.1172 2.56624 79.3734 2.25297C96.821 22.4365 116.8 40.2928 135.724 58.9845L134.835 59.8647C116.589 39.9049 96.595 21.258 72.5781 8.26476L73.4369 7.41446C85.8522 24.6741 100.558 40.1436 115.625 55.1507L114.63 55.9115C103.375 38.9204 88.8807 24.4802 73.4671 11.1588L74.4615 10.398C82.8087 24.5398 94.4555 36.2651 104.596 49.1837C105.078 49.7953 104.234 50.6754 103.707 50.0638C93.8618 38.5993 82.7423 28.2708 70.5591 19.2739L71.4933 18.5728C73.1054 28.0455 80.202 36.0115 86.4248 43.0973C86.5211 43.2178 86.5694 43.3691 86.5604 43.5225C86.5514 43.6758 86.4858 43.8206 86.3761 43.9293C86.2664 44.0379 86.1201 44.1028 85.9652 44.1117C85.8103 44.1206 85.6575 44.0728 85.5358 43.9774C78.5597 38.0104 71.9754 31.5511 64.5323 26.0763L65.3911 25.226C69.7304 34.46 76.4051 42.3216 81.4827 51.1379C81.7841 51.6451 81.1663 52.3462 80.6239 51.9882C71.7042 45.9018 64.5775 37.354 54.4675 33.0578L55.3866 32.3567C56.5015 36.2949 56.6673 40.3525 58.4 44.1565C58.4688 44.2862 58.4895 44.4357 58.4586 44.579C58.4276 44.7223 58.3468 44.8503 58.2304 44.9408C58.1139 45.0312 57.9692 45.0784 57.8212 45.0741C57.6732 45.0698 57.5315 45.0143 57.4206 44.9173C52.9005 40.8298 47.3558 38.5027 42.4439 35.0418L43.3027 34.1915C45.0361 37.4193 46.3909 40.8327 47.3407 44.3653C47.3775 44.4983 47.369 44.6395 47.3165 44.7672C47.2639 44.8948 47.1704 45.0018 47.0502 45.0715C46.9301 45.1411 46.7901 45.1696 46.6519 45.1525C46.5138 45.1355 46.3851 45.0737 46.286 44.9769C41.0072 38.932 33.6199 35.0806 25.5989 34.1915C24.8004 34.0871 24.8004 32.8489 25.5989 32.9534C33.949 33.8319 41.6556 37.8014 47.175 44.067L46.1203 44.6637C45.187 41.2511 43.8573 37.9572 42.1576 34.8479C41.8563 34.3407 42.4891 33.6246 43.0315 33.9976C48.0187 37.5181 53.7292 39.9646 58.2493 44.067L57.2549 44.8128C55.5372 40.9193 55.3263 36.7723 54.2415 32.7147C54.2115 32.5964 54.2171 32.472 54.2575 32.3567C54.2979 32.2415 54.3715 32.1405 54.4691 32.0661C54.5666 31.9916 54.6841 31.947 54.8069 31.9377C54.9297 31.9283 55.0526 31.9547 55.1605 32.0135C65.2856 36.3098 72.3973 44.8427 81.317 50.944L80.4582 51.7943C75.3203 43.0078 68.5853 35.1164 64.3063 25.9123C64.0652 25.42 64.6076 24.6592 65.1651 25.062C72.6986 30.5367 79.3734 36.996 86.4248 43.0973C86.1234 43.3807 85.8221 43.6791 85.5358 43.9774C79.1624 36.7126 71.9754 28.5974 70.2728 18.7966C70.1975 18.3341 70.7098 17.7225 71.207 18.0954C83.4527 27.1559 94.6322 37.5489 104.535 49.0793C104.234 49.3627 103.948 49.661 103.646 49.9594C93.4912 36.996 81.754 25.1962 73.3616 10.9648C73.3121 10.9012 73.2758 10.8285 73.2547 10.7509C73.2336 10.6734 73.2282 10.5924 73.2387 10.5128C73.2492 10.4331 73.2754 10.3563 73.3159 10.2867C73.3563 10.2171 73.4103 10.1561 73.4746 10.1071C73.5389 10.0581 73.6123 10.0222 73.6907 10.0013C73.769 9.98038 73.8507 9.97498 73.9312 9.98537C74.0116 9.99576 74.0892 10.0217 74.1595 10.0618C74.2298 10.1019 74.2915 10.1553 74.341 10.219C89.845 23.6448 104.475 38.0999 115.7 55.1805C116.107 55.7773 115.218 56.4187 114.721 55.9264C99.5482 40.8895 84.8276 25.3305 72.3521 7.98132C71.9604 7.44429 72.6986 6.84759 73.2109 7.13102C97.3333 20.1988 117.403 38.9502 135.724 58.9845C135.821 59.105 135.869 59.2563 135.86 59.4097C135.851 59.5631 135.785 59.7078 135.676 59.8165C135.566 59.9251 135.42 59.9901 135.265 59.999C135.11 60.0078 134.957 59.96 134.835 59.8647C115.866 41.1133 95.9321 23.2569 78.4844 3.07344C78.3739 2.96599 78.3071 2.82216 78.2966 2.6692C78.286 2.51624 78.3325 2.36476 78.4272 2.24344C78.5219 2.12213 78.6582 2.03939 78.8103 2.01091C78.9625 1.98243 79.1199 2.01017 79.2528 2.08888C102.366 15.2313 121.697 33.3412 137.894 54.1811C138.316 54.7479 137.336 55.4789 136.899 54.9419C124.334 39.3828 111.617 23.8984 99.5181 7.98132C99.1263 7.47413 99.8797 6.81775 100.377 7.13102C118.036 17.9761 132.199 32.7147 145.789 48.0798L144.81 48.8257C135.197 36.2501 124.469 24.5697 114.676 12.0986C114.193 11.472 114.962 10.6068 115.565 11.2184C118.309 14.0829 121.293 16.7128 124.484 19.08C125.147 19.5424 124.484 20.5718 123.851 20.1541L123.897 20.1988Z" fill="#4CCAEF"/>
<path d="M22.1034 39.8012C25.3869 42.2243 28.4565 44.9191 31.2793 47.8567C30.993 48.155 30.6916 48.4534 30.3903 48.7368C20.5816 36.1911 9.77852 24.4212 0.105449 11.7561C-0.316429 11.1893 0.632797 10.4732 1.09988 10.9953C14.6603 26.2858 28.6877 40.9647 46.3011 51.7502L45.4423 52.6005C33.3585 36.8177 20.7624 21.4078 8.25674 5.93827L9.25117 5.19239C25.2524 25.8532 44.478 43.7991 67.38 56.7774C67.1239 57.1056 66.8828 57.4338 66.6266 57.747C49.179 37.5635 29.2 19.7072 10.2757 1.01547L11.1647 0.135334C29.4109 20.0951 49.405 38.742 73.4219 51.7352L72.5631 52.5855C60.1478 35.3259 45.4423 19.8564 30.3752 4.84929L31.3697 4.08849C42.6248 21.0796 57.1193 35.5198 72.5329 48.8412L71.5385 49.602C63.1913 35.4602 51.5445 23.7349 41.4043 10.8163C40.9222 10.2047 41.7659 9.32456 42.2933 9.93618C52.1382 21.4007 63.2577 31.7292 75.4409 40.7261L74.5067 41.4272C72.8946 31.9545 65.798 23.9885 59.5752 16.9027C59.4789 16.7822 59.4306 16.6309 59.4396 16.4775C59.4486 16.3242 59.5142 16.1794 59.6239 16.0707C59.7336 15.9621 59.8799 15.8972 60.0348 15.8883C60.1897 15.8794 60.3425 15.9272 60.4642 16.0226C67.4403 21.9896 74.0246 28.4489 81.4677 33.9237L80.6089 34.774C76.2696 25.54 69.5949 17.6784 64.5173 8.86211C64.2159 8.35492 64.8337 7.65379 65.3761 8.01181C74.2958 14.0982 81.4225 22.646 91.5325 26.9422L90.6134 27.6433C89.4985 23.7051 89.3327 19.6475 87.6 15.8435C87.5312 15.7138 87.5105 15.5643 87.5414 15.421C87.5724 15.2777 87.6532 15.1497 87.7696 15.0592C87.8861 14.9688 88.0308 14.9216 88.1788 14.9259C88.3268 14.9302 88.4685 14.9857 88.5794 15.0827C93.0995 19.1702 98.6442 21.4973 103.556 24.9582L102.697 25.8085C100.964 22.5807 99.6091 19.1673 98.6593 15.6347C98.6225 15.5017 98.631 15.3605 98.6835 15.2328C98.7361 15.1052 98.8296 14.9982 98.9498 14.9285C99.0699 14.8589 99.2099 14.8304 99.3481 14.8475C99.4862 14.8645 99.6149 14.9263 99.714 15.0231C104.993 21.068 112.38 24.9194 120.401 25.8085C121.2 25.9129 121.2 27.1511 120.401 27.0466C112.051 26.1681 104.344 22.1986 98.825 15.933L99.8797 15.3363C100.813 18.7489 102.143 22.0428 103.842 25.1521C104.144 25.6593 103.511 26.3754 102.968 26.0024C97.9813 22.4819 92.2708 20.0354 87.7507 15.933L88.7451 15.1872C90.4628 19.0807 90.6737 23.2277 91.7585 27.2853C91.7885 27.4036 91.7829 27.528 91.7425 27.6433C91.7021 27.7585 91.6285 27.8595 91.5309 27.9339C91.4334 28.0084 91.3159 28.053 91.1931 28.0623C91.0703 28.0717 90.9474 28.0453 90.8395 27.9865C80.7144 23.6902 73.6027 15.1573 64.683 9.05605L65.5418 8.20574C70.6797 16.9922 77.4147 24.8836 81.6937 34.0877C81.9348 34.58 81.3924 35.3408 80.8349 34.938C73.3014 29.4633 66.6266 23.004 59.5752 16.9027C59.8766 16.6193 60.1779 16.3209 60.4642 16.0226C66.8376 23.2874 74.0246 31.4026 75.7272 41.2034C75.8025 41.6659 75.2902 42.2775 74.793 41.9046C62.5473 32.8441 51.3678 22.4511 41.4646 10.9207C41.7659 10.6373 42.0522 10.339 42.3536 10.0406C52.5088 23.004 64.246 34.8038 72.6384 49.0352C72.6879 49.0988 72.7242 49.1715 72.7453 49.2491C72.7664 49.3266 72.7718 49.4076 72.7613 49.4872C72.7508 49.5669 72.7246 49.6437 72.6841 49.7133C72.6437 49.7829 72.5897 49.8439 72.5254 49.8929C72.4611 49.9419 72.3877 49.9778 72.3093 49.9987C72.231 50.0196 72.1493 50.025 72.0688 50.0146C71.9884 50.0042 71.9108 49.9783 71.8405 49.9382C71.7702 49.8981 71.7085 49.8447 71.659 49.781C56.155 36.3552 41.5249 21.9001 30.2999 4.81945C29.8931 4.22275 30.782 3.58129 31.2793 4.07357C46.4518 19.1105 61.1724 34.6695 73.6479 52.0187C74.0396 52.5557 73.3014 53.1524 72.7891 52.869C48.6667 39.8012 28.5973 21.0498 10.2757 1.01547C10.1794 0.895012 10.1311 0.74371 10.1401 0.590321C10.1491 0.436932 10.2147 0.292152 10.3244 0.18351C10.4341 0.0748634 10.5804 0.00992584 10.7353 0.00104523C10.8902 -0.00783539 11.043 0.0399551 11.1647 0.135334C30.1342 18.8867 50.0679 36.7431 67.5156 56.9266C67.6261 57.034 67.6929 57.1778 67.7034 57.3308C67.714 57.4838 67.6675 57.6352 67.5728 57.7566C67.4781 57.8779 67.3418 57.9606 67.1897 57.9891C67.0375 58.0176 66.8801 57.9898 66.7472 57.9111C43.6343 44.7687 24.3032 26.6588 8.10607 5.81893C7.68419 5.25206 8.66355 4.5211 9.1005 5.05813C21.6665 20.6172 34.3831 36.1016 46.4819 52.0187C46.8737 52.5259 46.1203 53.1822 45.6231 52.869C27.9645 42.0239 13.8014 27.2853 0.210919 11.9202L1.19028 11.1743C10.8031 23.7499 21.5308 35.4303 31.3245 47.9014C31.8066 48.528 31.0382 49.3932 30.4355 48.7816C27.6911 45.9171 24.7073 43.2872 21.5158 40.92C20.8528 40.4576 21.5158 39.4282 22.1486 39.8459L22.1034 39.8012Z" fill="#4CCAEF"/>
</svg>
