<svg width="82" height="40" viewBox="0 0 82 40" fill="none" xmlns="http://www.w3.org/2000/svg">
<path d="M15.67 13.1996C17.8492 11.5753 19.8865 9.76876 21.76 7.79958C21.57 7.59958 21.37 7.39958 21.17 7.20958C14.66 15.6196 7.48999 23.5096 1.06999 31.9996C0.789987 32.3796 1.41999 32.8596 1.72999 32.5096C10.73 22.2596 20.04 12.4196 31.73 5.18958L31.16 4.61958C23.14 15.1996 14.78 25.5296 6.47999 35.8996L7.13999 36.3996C17.76 22.5496 30.52 10.5196 45.72 1.81958C45.55 1.59958 45.39 1.37958 45.22 1.16958C33.64 14.6996 20.38 26.6696 7.81999 39.1996L8.40999 39.7896C20.52 26.4096 33.79 13.9096 49.73 5.19958L49.16 4.62958C40.92 16.1996 31.16 26.5696 21.16 36.6296L21.82 37.1396C29.29 25.7496 38.91 16.0696 49.14 7.13958L48.48 6.62958C42.94 16.1096 35.21 23.9696 28.48 32.6296C28.16 33.0396 28.72 33.6296 29.07 33.2196C35.604 25.5344 42.984 18.6106 51.07 12.5796L50.45 12.1096C49.38 18.4596 44.67 23.7996 40.54 28.5496C40.476 28.6303 40.444 28.7318 40.45 28.8346C40.4559 28.9374 40.4995 29.0345 40.5723 29.1073C40.6451 29.1801 40.7422 29.2236 40.845 29.2296C40.9478 29.2356 41.0492 29.2035 41.13 29.1396C45.76 25.1396 50.13 20.8096 55.07 17.1396L54.5 16.5696C51.62 22.7596 47.19 28.0296 43.82 33.9396C43.62 34.2796 44.03 34.7496 44.39 34.5096C50.31 30.4296 55.04 24.6996 61.75 21.8196L61.14 21.3496C60.4 23.9896 60.29 26.7096 59.14 29.2596C59.0943 29.3465 59.0805 29.4468 59.1011 29.5428C59.1217 29.6389 59.1752 29.7247 59.2525 29.7854C59.3298 29.846 59.4259 29.8776 59.5241 29.8747C59.6223 29.8719 59.7164 29.8346 59.79 29.7696C62.79 27.0296 66.47 25.4696 69.73 23.1496L69.16 22.5796C68.0096 24.7433 67.1104 27.0315 66.48 29.3996C66.4556 29.4887 66.4612 29.5834 66.4961 29.669C66.531 29.7546 66.5931 29.8263 66.6728 29.873C66.7525 29.9197 66.8454 29.9388 66.9371 29.9273C67.0288 29.9159 67.1142 29.8745 67.18 29.8096C70.6835 25.7574 75.5865 23.1756 80.91 22.5796C81.44 22.5096 81.44 21.6796 80.91 21.7496C75.368 22.3385 70.2532 24.9995 66.59 29.1996L67.29 29.5996C67.9094 27.312 68.792 25.1039 69.92 23.0196C70.12 22.6796 69.7 22.1996 69.34 22.4496C66.03 24.8096 62.24 26.4496 59.24 29.1996L59.9 29.6996C61.04 27.0896 61.18 24.3096 61.9 21.5896C61.9199 21.5103 61.9162 21.4269 61.8893 21.3496C61.8625 21.2724 61.8137 21.2047 61.7489 21.1548C61.6842 21.1049 61.6062 21.075 61.5247 21.0687C61.4432 21.0625 61.3616 21.0801 61.29 21.1196C54.57 23.9996 49.85 29.7196 43.93 33.8096L44.5 34.3796C47.91 28.4896 52.38 23.1996 55.22 17.0296C55.38 16.6996 55.02 16.1896 54.65 16.4596C49.65 20.1296 45.22 24.4596 40.54 28.5496C40.74 28.7396 40.94 28.9396 41.13 29.1396C45.36 24.2696 50.13 18.8296 51.26 12.2596C51.31 11.9496 50.97 11.5396 50.64 11.7896C42.5126 17.8632 35.0927 24.8302 28.52 32.5596C28.72 32.7496 28.91 32.9496 29.11 33.1496C35.85 24.4596 43.64 16.5496 49.21 7.00958C49.2428 6.9669 49.2669 6.91817 49.2809 6.86618C49.2949 6.81418 49.2985 6.75994 49.2916 6.70655C49.2846 6.65316 49.2672 6.60166 49.2403 6.55499C49.2135 6.50833 49.1777 6.46741 49.135 6.43458C49.0923 6.40175 49.0436 6.37765 48.9916 6.36365C48.9396 6.34965 48.8853 6.34603 48.832 6.353C48.7786 6.35996 48.7271 6.37737 48.6804 6.40424C48.6337 6.43111 48.5928 6.4669 48.56 6.50958C38.27 15.5096 28.56 25.1996 21.11 36.6496C20.84 37.0496 21.43 37.4796 21.76 37.1496C31.83 27.0696 41.6 16.6396 49.88 5.00958C50.14 4.64958 49.65 4.24958 49.31 4.43958C33.3 13.1996 19.98 25.7696 7.81999 39.1996C7.75605 39.2803 7.72401 39.3818 7.72997 39.4846C7.73592 39.5874 7.77945 39.6845 7.85228 39.7573C7.92511 39.8301 8.02216 39.8736 8.12498 39.8796C8.22781 39.8856 8.32924 39.8535 8.40999 39.7896C21 27.2196 34.23 15.2496 45.81 1.71958C45.8833 1.64755 45.9276 1.55114 45.9346 1.4486C45.9416 1.34606 45.9108 1.24452 45.848 1.16319C45.7851 1.08187 45.6946 1.02641 45.5937 1.00731C45.4927 0.988219 45.3882 1.00682 45.3 1.05958C29.96 9.86958 17.13 22.0096 6.37999 35.9796C6.09999 36.3596 6.74999 36.8496 7.03999 36.4896C15.38 26.0596 23.82 15.6796 31.85 5.00958C32.11 4.66958 31.61 4.22958 31.28 4.43958C19.56 11.7096 10.16 21.5896 1.13999 31.8896L1.78999 32.3896C8.16999 23.9596 15.29 16.1296 21.79 7.76958C22.11 7.34958 21.6 6.76958 21.2 7.17958C19.3786 9.0998 17.3982 10.8627 15.28 12.4496C14.84 12.7596 15.28 13.4496 15.7 13.1696L15.67 13.1996Z" fill="#C24CEF"/>
</svg>
