<svg width="81" height="516" viewBox="0 0 81 516" fill="none" xmlns="http://www.w3.org/2000/svg">
<path d="M65.6376 12.1996C63.4584 10.5753 61.4211 8.76876 59.5476 6.79958C59.7376 6.59958 59.9376 6.39958 60.1376 6.20958C66.6476 14.6196 73.8176 22.5096 80.2376 30.9996C80.5176 31.3796 79.8876 31.8596 79.5776 31.5096C70.5776 21.2596 61.2676 11.4196 49.5776 4.18958L50.1476 3.61958C58.1676 14.1996 66.5276 24.5296 74.8276 34.8996L74.1676 35.3996C63.5476 21.5496 50.7876 9.51958 35.5876 0.819582C35.7576 0.599582 35.9176 0.379581 36.0876 0.169581C47.6676 13.6996 60.9276 25.6696 73.4876 38.1996L72.8976 38.7896C60.7876 25.4096 47.5176 12.9096 31.5776 4.19958L32.1476 3.62958C40.3876 15.1996 50.1476 25.5696 60.1476 35.6296L59.4876 36.1396C52.0176 24.7496 42.3976 15.0696 32.1676 6.13958L32.8276 5.62958C38.3676 15.1096 46.0976 22.9696 52.8276 31.6296C53.1476 32.0396 52.5876 32.6296 52.2376 32.2196C45.7036 24.5344 38.3236 17.6106 30.2376 11.5796L30.8576 11.1096C31.9276 17.4596 36.6376 22.7996 40.7676 27.5496C40.8316 27.6303 40.8636 27.7318 40.8577 27.8346C40.8517 27.9374 40.8082 28.0345 40.7353 28.1073C40.6625 28.1801 40.5655 28.2236 40.4626 28.2296C40.3598 28.2356 40.2584 28.2035 40.1776 28.1396C35.5476 24.1396 31.1776 19.8096 26.2376 16.1396L26.8076 15.5696C29.6876 21.7596 34.1176 27.0296 37.4876 32.9396C37.6876 33.2796 37.2776 33.7496 36.9176 33.5096C30.9976 29.4296 26.2676 23.6996 19.5576 20.8196L20.1676 20.3496C20.9076 22.9896 21.0176 25.7096 22.1676 28.2596C22.2133 28.3465 22.2271 28.4468 22.2065 28.5428C22.186 28.6389 22.1324 28.7247 22.0551 28.7854C21.9778 28.846 21.8817 28.8776 21.7835 28.8747C21.6853 28.8719 21.5912 28.8347 21.5176 28.7696C18.5176 26.0296 14.8376 24.4696 11.5776 22.1496L12.1476 21.5796C13.298 23.7433 14.1972 26.0315 14.8276 28.3996C14.852 28.4887 14.8464 28.5834 14.8115 28.669C14.7767 28.7546 14.7146 28.8263 14.6348 28.873C14.5551 28.9197 14.4622 28.9388 14.3705 28.9273C14.2788 28.9159 14.1934 28.8745 14.1276 28.8096C10.6241 24.7574 5.72116 22.1756 0.397629 21.5796C-0.13237 21.5096 -0.13237 20.6796 0.397629 20.7496C5.93958 21.3385 11.0544 23.9995 14.7176 28.1996L14.0176 28.5996C13.3982 26.312 12.5157 24.1039 11.3876 22.0196C11.1876 21.6796 11.6076 21.1996 11.9676 21.4496C15.2776 23.8096 19.0676 25.4496 22.0676 28.1996L21.4076 28.6996C20.2676 26.0896 20.1276 23.3096 19.4076 20.5896C19.3878 20.5103 19.3915 20.4269 19.4183 20.3496C19.4451 20.2724 19.4939 20.2047 19.5587 20.1548C19.6235 20.1049 19.7014 20.075 19.7829 20.0687C19.8644 20.0625 19.946 20.0801 20.0176 20.1196C26.7376 22.9996 31.4576 28.7196 37.3776 32.8096L36.8076 33.3796C33.3976 27.4896 28.9276 22.1996 26.0876 16.0296C25.9276 15.6996 26.2876 15.1896 26.6576 15.4596C31.6576 19.1296 36.0876 23.4596 40.7676 27.5496C40.5676 27.7396 40.3676 27.9396 40.1776 28.1396C35.9476 23.2696 31.1776 17.8296 30.0476 11.2596C29.9976 10.9496 30.3376 10.5396 30.6676 10.7896C38.7951 16.8632 46.2149 23.8302 52.7876 31.5596C52.5876 31.7496 52.3976 31.9496 52.1976 32.1496C45.4576 23.4596 37.6676 15.5496 32.0976 6.00958C32.0648 5.9669 32.0407 5.91817 32.0267 5.86618C32.0127 5.81418 32.0091 5.75994 32.016 5.70655C32.023 5.65316 32.0404 5.60166 32.0673 5.55499C32.0942 5.50833 32.13 5.46741 32.1726 5.43458C32.2153 5.40175 32.264 5.37765 32.316 5.36365C32.368 5.34965 32.4223 5.34603 32.4757 5.353C32.5291 5.35996 32.5806 5.37737 32.6272 5.40424C32.6739 5.43111 32.7148 5.4669 32.7476 5.50958C43.0376 14.5096 52.7476 24.1996 60.1976 35.6496C60.4676 36.0496 59.8776 36.4796 59.5476 36.1496C49.4776 26.0696 39.7076 15.6396 31.4276 4.00958C31.1676 3.64958 31.6576 3.24958 31.9976 3.43958C48.0076 12.1996 61.3276 24.7696 73.4876 38.1996C73.5516 38.2803 73.5836 38.3818 73.5777 38.4846C73.5717 38.5874 73.5282 38.6845 73.4553 38.7573C73.3825 38.8301 73.2855 38.8736 73.1826 38.8796C73.0798 38.8856 72.9784 38.8535 72.8976 38.7896C60.3076 26.2196 47.0776 14.2496 35.4976 0.719582C35.4243 0.647549 35.38 0.551137 35.373 0.448599C35.366 0.346062 35.3968 0.244518 35.4597 0.163193C35.5225 0.0818683 35.613 0.0264079 35.714 0.00731328C35.815 -0.0117813 35.9194 0.00681567 36.0076 0.0595823C51.3476 8.86958 64.1776 21.0096 74.9276 34.9796C75.2076 35.3596 74.5576 35.8496 74.2676 35.4896C65.9276 25.0596 57.4876 14.6796 49.4576 4.00958C49.1976 3.66958 49.6976 3.22958 50.0276 3.43958C61.7476 10.7096 71.1476 20.5896 80.1676 30.8896L79.5176 31.3896C73.1376 22.9596 66.0176 15.1296 59.5176 6.76958C59.1976 6.34958 59.7076 5.76958 60.1076 6.17958C61.9291 8.0998 63.9094 9.86273 66.0276 11.4496C66.4676 11.7596 66.0276 12.4496 65.6076 12.1696L65.6376 12.1996Z" fill="#4CCAEF"/>
<path d="M65.6376 501.681C63.4584 503.305 61.4211 505.112 59.5476 507.081C59.7376 507.281 59.9376 507.481 60.1376 507.671C66.6476 499.261 73.8176 491.371 80.2376 482.881C80.5176 482.501 79.8876 482.021 79.5776 482.371C70.5776 492.621 61.2676 502.461 49.5776 509.691L50.1476 510.261C58.1676 499.681 66.5276 489.351 74.8276 478.981L74.1676 478.481C63.5476 492.331 50.7876 504.361 35.5876 513.061C35.7576 513.281 35.9176 513.501 36.0876 513.711C47.6676 500.181 60.9276 488.211 73.4876 475.681L72.8976 475.091C60.7876 488.471 47.5176 500.971 31.5776 509.681L32.1476 510.251C40.3876 498.681 50.1476 488.311 60.1476 478.251L59.4876 477.741C52.0176 489.131 42.3976 498.811 32.1676 507.741L32.8276 508.251C38.3676 498.771 46.0976 490.911 52.8276 482.251C53.1476 481.841 52.5876 481.251 52.2376 481.661C45.7036 489.346 38.3236 496.27 30.2376 502.301L30.8576 502.771C31.9276 496.421 36.6376 491.081 40.7676 486.331C40.8316 486.25 40.8636 486.149 40.8577 486.046C40.8517 485.943 40.8082 485.846 40.7353 485.773C40.6625 485.7 40.5655 485.657 40.4626 485.651C40.3598 485.645 40.2584 485.677 40.1776 485.741C35.5476 489.741 31.1776 494.071 26.2376 497.741L26.8076 498.311C29.6876 492.121 34.1176 486.851 37.4876 480.941C37.6876 480.601 37.2776 480.131 36.9176 480.371C30.9976 484.451 26.2676 490.181 19.5576 493.061L20.1676 493.531C20.9076 490.891 21.0176 488.171 22.1676 485.621C22.2133 485.534 22.2271 485.434 22.2065 485.338C22.186 485.241 22.1324 485.156 22.0551 485.095C21.9778 485.034 21.8817 485.003 21.7835 485.006C21.6853 485.009 21.5912 485.046 21.5176 485.111C18.5176 487.851 14.8376 489.411 11.5776 491.731L12.1476 492.301C13.298 490.137 14.1972 487.849 14.8276 485.481C14.852 485.392 14.8464 485.297 14.8115 485.211C14.7767 485.126 14.7146 485.054 14.6348 485.007C14.5551 484.961 14.4622 484.942 14.3705 484.953C14.2788 484.965 14.1934 485.006 14.1276 485.071C10.6241 489.123 5.72116 491.705 0.397629 492.301C-0.13237 492.371 -0.13237 493.201 0.397629 493.131C5.93958 492.542 11.0544 489.881 14.7176 485.681L14.0176 485.281C13.3982 487.568 12.5157 489.776 11.3876 491.861C11.1876 492.201 11.6076 492.681 11.9676 492.431C15.2776 490.071 19.0676 488.431 22.0676 485.681L21.4076 485.181C20.2676 487.791 20.1276 490.571 19.4076 493.291C19.3878 493.37 19.3915 493.453 19.4183 493.531C19.4451 493.608 19.4939 493.676 19.5587 493.726C19.6235 493.775 19.7014 493.805 19.7829 493.812C19.8644 493.818 19.946 493.8 20.0176 493.761C26.7376 490.881 31.4576 485.161 37.3776 481.071L36.8076 480.501C33.3976 486.391 28.9276 491.681 26.0876 497.851C25.9276 498.181 26.2876 498.691 26.6576 498.421C31.6576 494.751 36.0876 490.421 40.7676 486.331C40.5676 486.141 40.3676 485.941 40.1776 485.741C35.9476 490.611 31.1776 496.051 30.0476 502.621C29.9976 502.931 30.3376 503.341 30.6676 503.091C38.7951 497.017 46.2149 490.05 52.7876 482.321C52.5876 482.131 52.3976 481.931 52.1976 481.731C45.4576 490.421 37.6676 498.331 32.0976 507.871C32.0648 507.913 32.0407 507.962 32.0267 508.014C32.0127 508.066 32.0091 508.12 32.016 508.174C32.023 508.227 32.0404 508.279 32.0673 508.325C32.0942 508.372 32.13 508.413 32.1726 508.446C32.2153 508.479 32.264 508.503 32.316 508.517C32.368 508.531 32.4223 508.534 32.4757 508.527C32.5291 508.52 32.5806 508.503 32.6272 508.476C32.6739 508.449 32.7148 508.413 32.7476 508.371C43.0376 499.371 52.7476 489.681 60.1976 478.231C60.4676 477.831 59.8776 477.401 59.5476 477.731C49.4776 487.811 39.7076 498.241 31.4276 509.871C31.1676 510.231 31.6576 510.631 31.9976 510.441C48.0076 501.681 61.3276 489.111 73.4876 475.681C73.5516 475.6 73.5836 475.499 73.5777 475.396C73.5717 475.293 73.5282 475.196 73.4553 475.123C73.3825 475.05 73.2855 475.007 73.1826 475.001C73.0798 474.995 72.9784 475.027 72.8976 475.091C60.3076 487.661 47.0776 499.631 35.4976 513.161C35.4243 513.233 35.38 513.329 35.373 513.432C35.366 513.534 35.3968 513.636 35.4597 513.717C35.5225 513.799 35.613 513.854 35.714 513.873C35.815 513.892 35.9194 513.874 36.0076 513.821C51.3476 505.011 64.1776 492.871 74.9276 478.901C75.2076 478.521 74.5576 478.031 74.2676 478.391C65.9276 488.821 57.4876 499.201 49.4576 509.871C49.1976 510.211 49.6976 510.651 50.0276 510.441C61.7476 503.171 71.1476 493.291 80.1676 482.991L79.5176 482.491C73.1376 490.921 66.0176 498.751 59.5176 507.111C59.1976 507.531 59.7076 508.111 60.1076 507.701C61.9291 505.781 63.9094 504.018 66.0276 502.431C66.4676 502.121 66.0276 501.431 65.6076 501.711L65.6376 501.681Z" fill="#4CCAEF"/>
</svg>
