<svg width="287" height="66" viewBox="0 0 287 66" fill="none" xmlns="http://www.w3.org/2000/svg">
<path d="M109.35 49.2643C118.879 36.6823 124.771 22.7028 134.496 10.2632L134.542 10.2184C135.144 9.60682 135.913 10.472 135.431 11.0986C128.416 20.0314 123.432 29.7602 117.636 39.1831C127.255 26.8875 135.931 14.6055 149.729 6.13102C150.226 5.81775 150.98 6.47413 150.588 6.98132C150.523 7.06665 150.459 7.15183 150.394 7.23689L150.407 7.24984C150.393 7.25856 150.379 7.26729 150.365 7.27602C143.296 16.6155 138.89 24.3602 133.875 32.3379C144.223 20.078 154.485 10.3964 170.853 1.08888C170.986 1.01017 171.144 0.982425 171.296 1.01091C171.448 1.03939 171.584 1.12213 171.679 1.24344C171.774 1.36476 171.82 1.51624 171.81 1.6692C171.799 1.82216 171.732 1.96599 171.622 2.07344C165.981 8.59871 160.203 15.5271 154.326 22.5495C161.382 16.1709 168.848 10.4906 176.895 6.13102C177.408 5.84759 178.146 6.44429 177.754 6.98132C173.597 12.7625 169.079 18.456 164.342 24.0347C169.593 19.7486 174.827 15.569 179.668 11.3769C179.717 11.3133 179.779 11.2599 179.849 11.2198C179.919 11.1797 179.997 11.1537 180.077 11.1433C180.158 11.1329 180.24 11.1383 180.318 11.1592C180.396 11.1801 180.47 11.2161 180.534 11.265C180.598 11.314 180.652 11.375 180.693 11.4447C180.733 11.5143 180.759 11.5911 180.77 11.6707C180.78 11.7504 180.775 11.8313 180.754 11.9089C180.733 11.9864 180.696 12.0591 180.647 12.1228C180.61 12.1859 180.572 12.2488 180.535 12.3117L180.541 12.3167C180.535 12.3224 180.528 12.328 180.522 12.3337C175.021 21.5534 166.486 28.851 158.411 36.3984C166.078 30.6428 174.505 25.6242 182.106 20C182.603 19.6271 183.116 20.2387 183.04 20.7011C181.754 28.104 175.51 32.8881 169.784 37.9166C175.836 34.5264 182.704 32.1781 188.247 28.1497C188.805 27.7469 189.414 28.6421 189.106 29C189.035 29.0827 188.88 29.1641 188.88 29.1641C181.437 34.6388 171.546 37.0104 164.57 42.9774C164.449 43.0728 164.296 43.1206 164.141 43.1117C163.986 43.1028 163.84 43.0379 163.73 42.9293C163.62 42.8206 163.555 42.6758 163.546 42.5225C163.537 42.3691 163.585 42.2178 163.681 42.0973C169.53 35.4373 178.984 30.5657 181.438 22.1388C169.551 30.712 155.892 38.0097 146.399 49.0638C145.872 49.6754 145.028 48.7953 145.51 48.1837C145.535 48.1528 145.559 48.1219 145.583 48.0911C145.579 48.0871 145.575 48.0832 145.571 48.0793C145.658 47.9775 145.746 47.876 145.834 47.7748C155.088 36.1781 168.64 27.2432 177.217 15.1425C171.427 19.9938 165.222 24.8751 159.188 29.9667C151.248 38.9109 142.857 47.525 134.622 55.6922C134.573 55.7652 134.524 55.8383 134.476 55.9115L134.433 55.879C134.417 55.8948 134.401 55.9106 134.385 55.9264C133.888 56.4187 132.999 55.7773 133.406 55.1805C139.862 45.3573 149.065 36.7854 158.67 28.7208C164.448 22.1956 169.981 15.4991 175.022 8.67341C164.765 14.6574 155.455 22.7565 146.714 31.6089C136.8 43.3367 126.654 54.9581 116.446 65.0482C116.325 65.1435 116.172 65.1913 116.017 65.1825C115.862 65.1736 115.716 65.1086 115.606 65C115.496 64.8914 115.431 64.7466 115.422 64.5932C115.413 64.4398 115.461 64.2885 115.557 64.168C125.335 53.4763 135.276 41.3889 146.087 30.4543C153.655 21.5083 161.088 12.5035 168.303 4.07714C147.544 16.5199 136.993 29.9062 121.751 49.5859L121.725 49.5661C121.684 49.6174 121.642 49.6688 121.601 49.7202C121.164 50.2572 120.184 49.5263 120.606 48.9594C122.189 46.9224 123.722 44.9517 125.221 43.0417C133.853 31.2588 138.389 21.5427 147.492 9.14211C131.744 19.9589 122.892 35.9227 110.1 50.3467C109.633 50.8689 108.684 50.1528 109.105 49.5859C109.145 49.5344 109.184 49.4829 109.223 49.4313L109.211 49.4218C109.257 49.3693 109.304 49.3168 109.35 49.2643Z" fill="#C24CEF"/>
<path d="M187.103 25.1988C190.387 22.7757 193.457 20.0809 196.279 17.1433C195.993 16.845 195.692 16.5466 195.39 16.2632C185.582 28.8089 174.779 40.5788 165.105 53.2439C164.684 53.8107 165.633 54.5268 166.1 54.0047C179.66 38.7142 193.688 24.0353 211.301 13.2498L210.442 12.3995C198.359 28.1823 185.762 43.5922 173.257 59.0617L174.251 59.8076C190.252 39.1468 209.478 21.2009 232.38 8.22262C232.124 7.89443 231.883 7.56624 231.627 7.25297C214.179 27.4365 194.2 45.2928 175.276 63.9845L176.165 64.8647C194.411 44.9049 214.405 26.258 238.422 13.2648L237.563 12.4145C225.148 29.6741 210.442 45.1436 195.375 60.1507L196.37 60.9115C207.625 43.9204 222.119 29.4802 237.533 16.1588L236.539 15.398C228.191 29.5398 216.544 41.2651 206.404 54.1837C205.922 54.7953 206.766 55.6754 207.293 55.0638C217.138 43.5993 228.258 33.2708 240.441 24.2739L239.507 23.5728C237.895 33.0455 230.798 41.0115 224.575 48.0973C224.479 48.2178 224.431 48.3691 224.44 48.5225C224.449 48.6758 224.514 48.8206 224.624 48.9293C224.734 49.0379 224.88 49.1028 225.035 49.1117C225.19 49.1206 225.343 49.0728 225.464 48.9774C232.44 43.0104 239.025 36.5511 246.468 31.0763L245.609 30.226C241.27 39.46 234.595 47.3216 229.517 56.1379C229.216 56.6451 229.834 57.3462 230.376 56.9882C239.296 50.9018 246.423 42.354 256.533 38.0578L255.613 37.3567C254.498 41.2949 254.333 45.3525 252.6 49.1565C252.531 49.2862 252.51 49.4357 252.541 49.579C252.572 49.7223 252.653 49.8503 252.77 49.9408C252.886 50.0312 253.031 50.0784 253.179 50.0741C253.327 50.0698 253.469 50.0143 253.579 49.9173C258.1 45.8298 263.644 43.5027 268.556 40.0418L267.697 39.1915C265.964 42.4193 264.609 45.8327 263.659 49.3653C263.622 49.4983 263.631 49.6395 263.684 49.7672C263.736 49.8948 263.83 50.0018 263.95 50.0715C264.07 50.1411 264.21 50.1696 264.348 50.1525C264.486 50.1355 264.615 50.0737 264.714 49.9769C269.993 43.932 277.38 40.0806 285.401 39.1915C286.2 39.0871 286.2 37.8489 285.401 37.9534C277.051 38.8319 269.344 42.8014 263.825 49.067L264.88 49.6637C265.813 46.2511 267.143 42.9572 268.842 39.8479C269.144 39.3407 268.511 38.6246 267.968 38.9976C262.981 42.5181 257.271 44.9646 252.751 49.067L253.745 49.8128C255.463 45.9193 255.674 41.7723 256.759 37.7147C256.788 37.5964 256.783 37.472 256.742 37.3567C256.702 37.2415 256.629 37.1405 256.531 37.0661C256.433 36.9916 256.316 36.947 256.193 36.9377C256.07 36.9283 255.947 36.9547 255.839 37.0135C245.714 41.3098 238.603 49.8427 229.683 55.944L230.542 56.7943C235.68 48.0078 242.415 40.1164 246.694 30.9123C246.935 30.42 246.392 29.6592 245.835 30.062C238.301 35.5367 231.627 41.996 224.575 48.0973C224.877 48.3807 225.178 48.6791 225.464 48.9774C231.838 41.7126 239.025 33.5974 240.727 23.7966C240.802 23.3341 240.29 22.7225 239.793 23.0954C227.547 32.1559 216.368 42.5489 206.465 54.0793C206.766 54.3627 207.052 54.661 207.354 54.9594C217.509 41.996 229.246 30.1962 237.638 15.9648C237.688 15.9012 237.724 15.8285 237.745 15.7509C237.766 15.6734 237.772 15.5924 237.761 15.5128C237.751 15.4331 237.725 15.3563 237.684 15.2867C237.644 15.2171 237.59 15.1561 237.525 15.1071C237.461 15.0581 237.388 15.0222 237.309 15.0013C237.231 14.9804 237.149 14.975 237.069 14.9854C236.988 14.9958 236.911 15.0217 236.84 15.0618C236.77 15.1019 236.709 15.1553 236.659 15.219C221.155 28.6448 206.525 43.0999 195.3 60.1805C194.893 60.7773 195.782 61.4187 196.279 60.9264C211.452 45.8895 226.172 30.3305 238.648 12.9813C239.04 12.4443 238.301 11.8476 237.789 12.131C213.667 25.1988 193.597 43.9502 175.276 63.9845C175.179 64.105 175.131 64.2563 175.14 64.4097C175.149 64.5631 175.215 64.7078 175.324 64.8165C175.434 64.9251 175.58 64.9901 175.735 64.999C175.89 65.0078 176.043 64.96 176.165 64.8647C195.134 46.1133 215.068 28.2569 232.516 8.07344C232.626 7.96599 232.693 7.82216 232.703 7.6692C232.714 7.51624 232.668 7.36476 232.573 7.24344C232.478 7.12213 232.342 7.03939 232.19 7.01091C232.037 6.98243 231.88 7.01017 231.747 7.08888C208.634 20.2313 189.303 38.3412 173.106 59.1811C172.684 59.7479 173.664 60.4789 174.101 59.9419C186.666 44.3828 199.383 28.8984 211.482 12.9813C211.874 12.4741 211.12 11.8178 210.623 12.131C192.964 22.9761 178.801 37.7147 165.211 53.0798L166.19 53.8257C175.803 41.2501 186.531 29.5697 196.324 17.0986C196.807 16.472 196.038 15.6068 195.435 16.2184C192.691 19.0829 189.707 21.7128 186.516 24.08C185.853 24.5424 186.516 25.5718 187.149 25.1541L187.103 25.1988Z" fill="#C24CEF"/>
<path d="M39.1034 24.3823C42.3869 21.9592 45.4565 19.2643 48.2793 16.3268C47.993 16.0285 47.6916 15.7301 47.3903 15.4467C37.5816 27.9923 26.7785 39.7623 17.1054 52.4273C16.6836 52.9942 17.6328 53.7103 18.0999 53.1881C31.6603 37.8976 45.6877 23.2187 63.3011 12.4333L62.4423 11.583C50.3585 27.3658 37.7624 42.7757 25.2567 58.2452L26.2512 58.9911C42.2524 38.3302 61.478 20.3844 84.38 7.40609C84.1239 7.0779 83.8828 6.74971 83.6266 6.43645C66.179 26.6199 46.2 44.4763 27.2757 63.168L28.1647 64.0481C46.4109 44.0884 66.405 25.4414 90.4219 12.4482L89.5631 11.5979C77.1478 28.8576 62.4423 44.3271 47.3752 59.3342L48.3697 60.095C59.6248 43.1039 74.1193 28.6636 89.5329 15.3422L88.5385 14.5814C80.1913 28.7233 68.5445 40.4485 58.4043 53.3672C57.9222 53.9788 58.7659 54.8589 59.2933 54.2473C69.1382 42.7828 80.2577 32.4543 92.4409 23.4574L91.5067 22.7563C89.8946 32.2289 82.798 40.1949 76.5752 47.2808C76.4789 47.4012 76.4306 47.5525 76.4396 47.7059C76.4486 47.8593 76.5142 48.0041 76.6239 48.1127C76.7336 48.2214 76.8799 48.2863 77.0348 48.2952C77.1897 48.3041 77.3425 48.2563 77.4642 48.1609C84.4403 42.1939 91.0246 35.7346 98.4677 30.2598L97.6089 29.4095C93.2696 38.6435 86.5949 46.5051 81.5173 55.3214C81.2159 55.8286 81.8337 56.5297 82.3761 56.1717C91.2958 50.0853 98.4225 41.5375 108.533 37.2412L107.613 36.5401C106.498 40.4784 106.333 44.5359 104.6 48.3399C104.531 48.4697 104.51 48.6192 104.541 48.7625C104.572 48.9058 104.653 49.0338 104.77 49.1243C104.886 49.2147 105.031 49.2619 105.179 49.2576C105.327 49.2533 105.469 49.1978 105.579 49.1007C110.1 45.0133 115.644 42.6862 120.556 39.2253L119.697 38.375C117.964 41.6027 116.609 45.0162 115.659 48.5488C115.622 48.6817 115.631 48.823 115.684 48.9506C115.736 49.0783 115.83 49.1853 115.95 49.2549C116.07 49.3246 116.21 49.3531 116.348 49.336C116.486 49.3189 116.615 49.2572 116.714 49.1604C121.993 43.1155 129.38 39.264 137.401 38.375C138.2 38.2706 138.2 37.0324 137.401 37.1368C129.051 38.0153 121.344 41.9849 115.825 48.2504L116.88 48.8471C117.813 45.4346 119.143 42.1406 120.842 39.0314C121.144 38.5242 120.511 37.8081 119.968 38.1811C114.981 41.7016 109.271 44.1481 104.751 48.2504L105.745 48.9963C107.463 45.1028 107.674 40.9557 108.759 36.8981C108.788 36.7798 108.783 36.6554 108.742 36.5402C108.702 36.425 108.629 36.324 108.531 36.2495C108.433 36.1751 108.316 36.1305 108.193 36.1211C108.07 36.1118 107.947 36.1382 107.839 36.197C97.7144 40.4933 90.6027 49.0261 81.683 55.1274L82.5418 55.9777C87.6797 47.1913 94.4147 39.2999 98.6937 30.0957C98.9348 29.6035 98.3924 28.8426 97.8349 29.2454C90.3014 34.7202 83.6266 41.1795 76.5752 47.2808C76.8766 47.5642 77.1779 47.8626 77.4642 48.1609C83.8376 40.8961 91.0246 32.7809 92.7272 22.98C92.8025 22.5176 92.2902 21.906 91.793 22.2789C79.5473 31.3393 68.3678 41.7324 58.4646 53.2627C58.7659 53.5462 59.0522 53.8445 59.3536 54.1429C69.5088 41.1795 81.246 29.3797 89.6384 15.1483C89.6879 15.0846 89.7242 15.012 89.7453 14.9344C89.7664 14.8568 89.7718 14.7759 89.7613 14.6963C89.7508 14.6166 89.7246 14.5398 89.6841 14.4702C89.6437 14.4006 89.5897 14.3395 89.5254 14.2906C89.4611 14.2416 89.3877 14.2056 89.3093 14.1847C89.231 14.1639 89.1493 14.1585 89.0688 14.1688C88.9884 14.1792 88.9108 14.2052 88.8405 14.2453C88.7702 14.2854 88.7085 14.3388 88.659 14.4024C73.155 27.8283 58.5249 42.2834 47.2999 59.364C46.8931 59.9607 47.782 60.6022 48.2793 60.1099C63.4518 45.073 78.1724 29.5139 90.6479 12.1648C91.0396 11.6278 90.3014 11.0311 89.7891 11.3145C65.6667 24.3823 45.5973 43.1337 27.2757 63.168C27.1794 63.2885 27.1311 63.4398 27.1401 63.5932C27.1491 63.7465 27.2147 63.8913 27.3244 64C27.4341 64.1086 27.5804 64.1735 27.7353 64.1824C27.8902 64.1913 28.043 64.1435 28.1647 64.0481C47.1342 45.2967 67.0679 27.4404 84.5156 7.25691C84.6261 7.14946 84.6929 7.00563 84.7034 6.85267C84.714 6.69971 84.6675 6.54823 84.5728 6.42692C84.4781 6.3056 84.3418 6.22287 84.1897 6.19438C84.0375 6.1659 83.8801 6.19364 83.7472 6.27235C60.6343 19.4147 41.3032 37.5247 25.1061 58.3645C24.6842 58.9314 25.6636 59.6624 26.1005 59.1253C38.6665 43.5663 51.3831 28.0819 63.4819 12.1648C63.8737 11.6576 63.1203 11.0012 62.6231 11.3145C44.9645 22.1596 30.8014 36.8981 17.2109 52.2632L18.1903 53.0091C27.8031 40.4336 38.5308 28.7531 48.3245 16.282C48.8066 15.6555 48.0382 14.7903 47.4355 15.4019C44.6911 18.2664 41.7073 20.8963 38.5158 23.2635C37.8528 23.7259 38.5158 24.7552 39.1486 24.3375L39.1034 24.3823Z" fill="#C24CEF"/>
</svg>
