<svg width="147" height="62" viewBox="0 0 147 62" fill="none" xmlns="http://www.w3.org/2000/svg">
<path d="M124.897 43.8012C121.613 46.2243 118.543 48.9191 115.721 51.8567C116.007 52.155 116.308 52.4534 116.61 52.7368C126.418 40.1911 137.221 28.4212 146.895 15.7561C147.316 15.1893 146.367 14.4732 145.9 14.9953C132.34 30.2858 118.312 44.9647 100.699 55.7502L101.558 56.6005C113.641 40.8177 126.238 25.4078 138.743 9.93827L137.749 9.19239C121.748 29.8532 102.522 47.7991 79.62 60.7774C79.8761 61.1056 80.1172 61.4338 80.3734 61.747C97.821 41.5635 117.8 23.7072 136.724 5.01547L135.835 4.13533C117.589 24.0951 97.595 42.742 73.5781 55.7352L74.4369 56.5855C86.8522 39.3259 101.558 23.8564 116.625 8.84929L115.63 8.08849C104.375 25.0796 89.8807 39.5198 74.4671 52.8412L75.4615 53.602C83.8087 39.4602 95.4555 27.7349 105.596 14.8163C106.078 14.2047 105.234 13.3246 104.707 13.9362C94.8618 25.4006 83.7423 35.7292 71.5591 44.7261L72.4933 45.4272C74.1054 35.9545 81.202 27.9885 87.4248 20.9027C87.5211 20.7822 87.5694 20.6309 87.5604 20.4775C87.5514 20.3241 87.4858 20.1794 87.3761 20.0707C87.2664 19.9621 87.1201 19.8972 86.9652 19.8883C86.8103 19.8794 86.6575 19.9272 86.5358 20.0226C79.5597 25.9896 72.9754 32.4489 65.5323 37.9237L66.3911 38.774C70.7304 29.54 77.4051 21.6784 82.4828 12.8621C82.7841 12.3549 82.1663 11.6538 81.6239 12.0118C72.7042 18.0982 65.5775 26.646 55.4675 30.9422L56.3865 31.6433C57.5015 27.7051 57.6672 23.6475 59.4 19.8435C59.4688 19.7138 59.4895 19.5643 59.4586 19.421C59.4276 19.2777 59.3468 19.1497 59.2304 19.0592C59.1139 18.9688 58.9692 18.9216 58.8212 18.9259C58.6732 18.9302 58.5315 18.9857 58.4206 19.0827C53.9005 23.1702 48.3558 25.4973 43.4439 28.9582L44.3027 29.8085C46.0361 26.5807 47.3909 23.1673 48.3407 19.6347C48.3775 19.5017 48.369 19.3605 48.3165 19.2328C48.2639 19.1052 48.1704 18.9982 48.0502 18.9285C47.9301 18.8589 47.7901 18.8304 47.6519 18.8475C47.5138 18.8645 47.3851 18.9263 47.286 19.0231C42.0072 25.068 34.6199 28.9194 26.5989 29.8085C25.8004 29.9129 25.8004 31.1511 26.5989 31.0466C34.949 30.1682 42.6556 26.1986 48.175 19.933L47.1203 19.3363C46.187 22.7489 44.8573 26.0428 43.1576 29.1521C42.8563 29.6593 43.4891 30.3754 44.0315 30.0024C49.0187 26.4819 54.7292 24.0354 59.2493 19.933L58.2549 19.1872C56.5372 23.0807 56.3263 27.2277 55.2415 31.2853C55.2115 31.4036 55.2171 31.528 55.2575 31.6433C55.2979 31.7585 55.3715 31.8595 55.4691 31.9339C55.5666 32.0084 55.6841 32.053 55.8069 32.0623C55.9297 32.0717 56.0526 32.0453 56.1605 31.9865C66.2856 27.6902 73.3973 19.1573 82.317 13.056L81.4582 12.2057C76.3203 20.9922 69.5853 28.8836 65.3063 38.0877C65.0652 38.58 65.6076 39.3408 66.1651 38.938C73.6986 33.4633 80.3734 27.004 87.4248 20.9027C87.1234 20.6193 86.8221 20.3209 86.5358 20.0226C80.1624 27.2874 72.9754 35.4026 71.2728 45.2034C71.1975 45.6659 71.7098 46.2775 72.207 45.9046C84.4527 36.8441 95.6322 26.4511 105.535 14.9207C105.234 14.6373 104.948 14.339 104.646 14.0406C94.4912 27.004 82.754 38.8038 74.3616 53.0352C74.3121 53.0988 74.2758 53.1715 74.2547 53.2491C74.2336 53.3266 74.2282 53.4076 74.2387 53.4872C74.2492 53.5669 74.2754 53.6437 74.3159 53.7133C74.3563 53.7829 74.4103 53.8439 74.4746 53.8929C74.5389 53.9419 74.6123 53.9778 74.6907 53.9987C74.769 54.0196 74.8507 54.025 74.9312 54.0146C75.0116 54.0042 75.0892 53.9783 75.1595 53.9382C75.2298 53.8981 75.2915 53.8447 75.3409 53.781C90.845 40.3552 105.475 25.9001 116.7 8.81945C117.107 8.22275 116.218 7.58129 115.721 8.07357C100.548 23.1105 85.8276 38.6695 73.3521 56.0187C72.9603 56.5557 73.6986 57.1524 74.2109 56.869C98.3333 43.8012 118.403 25.0498 136.724 5.01547C136.821 4.89501 136.869 4.74371 136.86 4.59032C136.851 4.43693 136.785 4.29215 136.676 4.18351C136.566 4.07486 136.42 4.00993 136.265 4.00105C136.11 3.99216 135.957 4.03995 135.835 4.13533C116.866 22.8867 96.9321 40.7431 79.4844 60.9266C79.3739 61.034 79.3071 61.1778 79.2966 61.3308C79.286 61.4838 79.3325 61.6352 79.4272 61.7566C79.5219 61.8779 79.6582 61.9606 79.8104 61.9891C79.9625 62.0176 80.1199 61.9898 80.2528 61.9111C103.366 48.7687 122.697 30.6588 138.894 9.81893C139.316 9.25206 138.336 8.5211 137.9 9.05813C125.334 24.6172 112.617 40.1016 100.518 56.0187C100.126 56.5259 100.88 57.1822 101.377 56.869C119.036 46.0239 133.199 31.2853 146.789 15.9202L145.81 15.1743C136.197 27.7499 125.469 39.4303 115.676 51.9014C115.193 52.528 115.962 53.3932 116.565 52.7816C119.309 49.9171 122.293 47.2872 125.484 44.92C126.147 44.4575 125.484 43.4282 124.851 43.8459L124.897 43.8012Z" fill="#28BFEC"/>
<path d="M22.1034 18.1988C25.3869 15.7757 28.4565 13.0809 31.2793 10.1433C30.993 9.84498 30.6916 9.54663 30.3903 9.26319C20.5816 21.8089 9.77852 33.5788 0.105449 46.2439C-0.316429 46.8107 0.632797 47.5268 1.09988 47.0047C14.6603 31.7142 28.6877 17.0353 46.3011 6.24984L45.4423 5.39954C33.3585 21.1823 20.7624 36.5922 8.25674 52.0617L9.25117 52.8076C25.2524 32.1468 44.478 14.2009 67.38 1.22262C67.1239 0.894432 66.8828 0.566243 66.6266 0.252974C49.179 20.4365 29.2 38.2928 10.2757 56.9845L11.1647 57.8647C29.4109 37.9049 49.405 19.258 73.4219 6.26476L72.5631 5.41446C60.1478 22.6741 45.4423 38.1436 30.3752 53.1507L31.3697 53.9115C42.6248 36.9204 57.1193 22.4802 72.5329 9.15877L71.5385 8.39797C63.1913 22.5398 51.5445 34.2651 41.4043 47.1837C40.9222 47.7953 41.7659 48.6754 42.2933 48.0638C52.1382 36.5994 63.2577 26.2708 75.4409 17.2739L74.5067 16.5728C72.8946 26.0455 65.798 34.0115 59.5752 41.0973C59.4789 41.2178 59.4306 41.3691 59.4396 41.5225C59.4486 41.6759 59.5142 41.8206 59.6239 41.9293C59.7336 42.0379 59.8799 42.1028 60.0348 42.1117C60.1897 42.1206 60.3425 42.0728 60.4642 41.9774C67.4403 36.0104 74.0246 29.5511 81.4677 24.0763L80.6089 23.226C76.2696 32.46 69.5949 40.3216 64.5172 49.1379C64.2159 49.6451 64.8337 50.3462 65.3761 49.9882C74.2958 43.9018 81.4225 35.354 91.5325 31.0578L90.6135 30.3567C89.4985 34.2949 89.3328 38.3525 87.6 42.1565C87.5312 42.2862 87.5105 42.4357 87.5414 42.579C87.5724 42.7223 87.6532 42.8503 87.7696 42.9408C87.8861 43.0312 88.0308 43.0784 88.1788 43.0741C88.3268 43.0698 88.4685 43.0143 88.5794 42.9173C93.0995 38.8298 98.6442 36.5027 103.556 33.0418L102.697 32.1915C100.964 35.4193 99.6091 38.8327 98.6593 42.3653C98.6225 42.4983 98.631 42.6395 98.6835 42.7672C98.7361 42.8948 98.8296 43.0018 98.9498 43.0715C99.0699 43.1411 99.2099 43.1696 99.3481 43.1525C99.4862 43.1355 99.6149 43.0737 99.714 42.9769C104.993 36.932 112.38 33.0806 120.401 32.1915C121.2 32.0871 121.2 30.8489 120.401 30.9534C112.051 31.8318 104.344 35.8014 98.825 42.067L99.8797 42.6637C100.813 39.2511 102.143 35.9572 103.842 32.8479C104.144 32.3407 103.511 31.6246 102.968 31.9976C97.9813 35.5181 92.2708 37.9646 87.7507 42.067L88.7451 42.8128C90.4628 38.9193 90.6737 34.7723 91.7585 30.7147C91.7885 30.5964 91.7829 30.472 91.7425 30.3567C91.7021 30.2415 91.6285 30.1405 91.5309 30.0661C91.4334 29.9916 91.3159 29.947 91.1931 29.9377C91.0703 29.9283 90.9474 29.9547 90.8395 30.0135C80.7144 34.3098 73.6027 42.8427 64.683 48.944L65.5418 49.7943C70.6797 41.0078 77.4147 33.1164 81.6937 23.9123C81.9348 23.42 81.3924 22.6592 80.8349 23.062C73.3014 28.5367 66.6266 34.996 59.5752 41.0973C59.8766 41.3807 60.1779 41.6791 60.4642 41.9774C66.8376 34.7126 74.0246 26.5974 75.7272 16.7966C75.8025 16.3341 75.2902 15.7225 74.793 16.0954C62.5473 25.1559 51.3678 35.5489 41.4646 47.0793C41.7659 47.3627 42.0522 47.661 42.3536 47.9594C52.5088 34.996 64.246 23.1962 72.6384 8.96484C72.6879 8.90117 72.7242 8.82848 72.7453 8.75092C72.7664 8.67336 72.7718 8.59244 72.7613 8.51279C72.7508 8.43314 72.7246 8.35631 72.6841 8.2867C72.6437 8.21709 72.5897 8.15606 72.5254 8.10708C72.4611 8.05811 72.3877 8.02215 72.3093 8.00127C72.231 7.98038 72.1493 7.97498 72.0688 7.98537C71.9884 7.99576 71.9108 8.02174 71.8405 8.06182C71.7702 8.1019 71.7085 8.15529 71.6591 8.21896C56.155 21.6448 41.5249 36.0999 30.2999 53.1805C29.8931 53.7773 30.782 54.4187 31.2793 53.9264C46.4518 38.8895 61.1724 23.3305 73.6479 5.98132C74.0397 5.44429 73.3014 4.84759 72.7891 5.13102C48.6667 18.1988 28.5973 36.9502 10.2757 56.9845C10.1794 57.105 10.1311 57.2563 10.1401 57.4097C10.1491 57.5631 10.2147 57.7078 10.3244 57.8165C10.4341 57.9251 10.5804 57.9901 10.7353 57.999C10.8902 58.0078 11.043 57.96 11.1647 57.8647C30.1342 39.1133 50.0679 21.2569 67.5156 1.07344C67.6261 0.965987 67.6929 0.822162 67.7034 0.669202C67.714 0.516241 67.6675 0.364762 67.5728 0.243445C67.4781 0.122128 67.3418 0.0393941 67.1896 0.0109096C67.0375 -0.0175748 66.8801 0.0101673 66.7472 0.0888823C43.6343 13.2313 24.3032 31.3412 8.10607 52.1811C7.68419 52.7479 8.66355 53.4789 9.1005 52.9419C21.6665 37.3828 34.3831 21.8984 46.4819 5.98132C46.8737 5.47413 46.1203 4.81775 45.6231 5.13102C27.9645 15.9761 13.8014 30.7147 0.210918 46.0798L1.19028 46.8257C10.8031 34.2501 21.5308 22.5697 31.3245 10.0986C31.8066 9.47204 31.0382 8.60682 30.4355 9.21844C27.6911 12.0829 24.7073 14.7128 21.5158 17.08C20.8528 17.5425 21.5158 18.5718 22.1486 18.1541L22.1034 18.1988Z" fill="#28BFEC"/>
</svg>
