<svg width="81" height="39" viewBox="0 0 81 39" fill="none" xmlns="http://www.w3.org/2000/svg">
<path d="M14.67 12.1996C16.8492 10.5753 18.8865 8.76876 20.76 6.79958C20.57 6.59958 20.37 6.39958 20.17 6.20958C13.66 14.6196 6.48999 22.5096 0.0699865 30.9996C-0.210013 31.3796 0.419986 31.8596 0.729986 31.5096C9.72999 21.2596 19.04 11.4196 30.73 4.18958L30.16 3.61958C22.14 14.1996 13.78 24.5296 5.47999 34.8996L6.13999 35.3996C16.76 21.5496 29.52 9.51958 44.72 0.819582C44.55 0.599582 44.39 0.379581 44.22 0.169581C32.64 13.6996 19.38 25.6696 6.81999 38.1996L7.40999 38.7896C19.52 25.4096 32.79 12.9096 48.73 4.19958L48.16 3.62958C39.92 15.1996 30.16 25.5696 20.16 35.6296L20.82 36.1396C28.29 24.7496 37.91 15.0696 48.14 6.13958L47.48 5.62958C41.94 15.1096 34.21 22.9696 27.48 31.6296C27.16 32.0396 27.72 32.6296 28.07 32.2196C34.604 24.5344 41.984 17.6106 50.07 11.5796L49.45 11.1096C48.38 17.4596 43.67 22.7996 39.54 27.5496C39.476 27.6303 39.444 27.7318 39.45 27.8346C39.4559 27.9374 39.4995 28.0345 39.5723 28.1073C39.6451 28.1801 39.7422 28.2236 39.845 28.2296C39.9478 28.2356 40.0492 28.2035 40.13 28.1396C44.76 24.1396 49.13 19.8096 54.07 16.1396L53.5 15.5696C50.62 21.7596 46.19 27.0296 42.82 32.9396C42.62 33.2796 43.03 33.7496 43.39 33.5096C49.31 29.4296 54.04 23.6996 60.75 20.8196L60.14 20.3496C59.4 22.9896 59.29 25.7096 58.14 28.2596C58.0943 28.3465 58.0805 28.4468 58.1011 28.5428C58.1217 28.6389 58.1753 28.7247 58.2525 28.7854C58.3298 28.846 58.4259 28.8776 58.5241 28.8747C58.6223 28.8719 58.7164 28.8347 58.79 28.7696C61.79 26.0296 65.47 24.4696 68.73 22.1496L68.16 21.5796C67.0096 23.7433 66.1104 26.0315 65.48 28.3996C65.4556 28.4887 65.4612 28.5834 65.4961 28.669C65.531 28.7546 65.5931 28.8263 65.6728 28.873C65.7525 28.9197 65.8454 28.9388 65.9371 28.9273C66.0288 28.9159 66.1142 28.8745 66.18 28.8096C69.6835 24.7574 74.5865 22.1756 79.91 21.5796C80.44 21.5096 80.44 20.6796 79.91 20.7496C74.368 21.3385 69.2532 23.9995 65.59 28.1996L66.29 28.5996C66.9094 26.312 67.792 24.1039 68.92 22.0196C69.12 21.6796 68.7 21.1996 68.34 21.4496C65.03 23.8096 61.24 25.4496 58.24 28.1996L58.9 28.6996C60.04 26.0896 60.18 23.3096 60.9 20.5896C60.9199 20.5103 60.9162 20.4269 60.8893 20.3496C60.8625 20.2724 60.8137 20.2047 60.7489 20.1548C60.6842 20.1049 60.6062 20.075 60.5247 20.0687C60.4432 20.0625 60.3616 20.0801 60.29 20.1196C53.57 22.9996 48.85 28.7196 42.93 32.8096L43.5 33.3796C46.91 27.4896 51.38 22.1996 54.22 16.0296C54.38 15.6996 54.02 15.1896 53.65 15.4596C48.65 19.1296 44.22 23.4596 39.54 27.5496C39.74 27.7396 39.94 27.9396 40.13 28.1396C44.36 23.2696 49.13 17.8296 50.26 11.2596C50.31 10.9496 49.97 10.5396 49.64 10.7896C41.5126 16.8632 34.0927 23.8302 27.52 31.5596C27.72 31.7496 27.91 31.9496 28.11 32.1496C34.85 23.4596 42.64 15.5496 48.21 6.00958C48.2428 5.9669 48.2669 5.91817 48.2809 5.86618C48.2949 5.81418 48.2985 5.75994 48.2916 5.70655C48.2846 5.65316 48.2672 5.60166 48.2403 5.55499C48.2135 5.50833 48.1777 5.46741 48.135 5.43458C48.0923 5.40175 48.0436 5.37765 47.9916 5.36365C47.9396 5.34965 47.8853 5.34603 47.832 5.353C47.7786 5.35996 47.7271 5.37737 47.6804 5.40424C47.6337 5.43111 47.5928 5.4669 47.56 5.50958C37.27 14.5096 27.56 24.1996 20.11 35.6496C19.84 36.0496 20.43 36.4796 20.76 36.1496C30.83 26.0696 40.6 15.6396 48.88 4.00958C49.14 3.64958 48.65 3.24958 48.31 3.43958C32.3 12.1996 18.98 24.7696 6.81999 38.1996C6.75605 38.2803 6.72401 38.3818 6.72997 38.4846C6.73592 38.5874 6.77945 38.6845 6.85228 38.7573C6.92511 38.8301 7.02216 38.8736 7.12498 38.8796C7.22781 38.8856 7.32924 38.8535 7.40999 38.7896C20 26.2196 33.23 14.2496 44.81 0.719582C44.8833 0.647549 44.9276 0.551137 44.9346 0.448599C44.9416 0.346062 44.9108 0.244518 44.848 0.163193C44.7851 0.0818683 44.6946 0.0264079 44.5937 0.00731328C44.4927 -0.0117813 44.3882 0.00681567 44.3 0.0595823C28.96 8.86958 16.13 21.0096 5.37999 34.9796C5.09999 35.3596 5.74999 35.8496 6.03999 35.4896C14.38 25.0596 22.82 14.6796 30.85 4.00958C31.11 3.66958 30.61 3.22958 30.28 3.43958C18.56 10.7096 9.15999 20.5896 0.139986 30.8896L0.789986 31.3896C7.16999 22.9596 14.29 15.1296 20.79 6.76958C21.11 6.34958 20.6 5.76958 20.2 6.17958C18.3786 8.0998 16.3982 9.86273 14.28 11.4496C13.84 11.7596 14.28 12.4496 14.7 12.1696L14.67 12.1996Z" fill="#BE55E6"/>
</svg>
