<svg width="161" height="73" viewBox="0 0 161 73" fill="none" xmlns="http://www.w3.org/2000/svg">
<path d="M81.993 36.4828C63.6659 38.3494 45.309 41.0583 26.8361 39.8252C26.1328 39.7749 26.3059 38.7592 26.9817 38.7727C58.463 39.3885 70.9246 40.6817 102.023 44.9741C102.716 45.0632 102.554 46.0402 101.878 46.0266C65.148 45.1661 46.7844 45.1672 10.5665 53.3342L10.432 52.2845C31.6192 52.1575 52.8847 51.6059 73.6218 56.7005C74.2679 56.8685 74.1696 57.8547 73.4762 57.7529C54.5056 55.1208 35.4329 51.5646 16.3456 55.3455L16.3635 54.2874C24.4569 54.6505 32.4574 56.1638 40.1243 58.7817C40.6053 58.9589 40.524 59.7913 39.9893 59.7954C32.4481 60.0086 24.8971 60.0439 17.3938 60.9428L17.5415 59.9284C20.9455 61.5998 24.35 63.2796 27.7549 64.9679C28.1866 65.1733 28.1927 65.9754 27.6199 65.9816C19.7457 66.1622 11.8774 65.7566 4.00685 65.7714L4.01205 64.714C9.00068 65.559 13.6532 67.6963 18.6418 68.5414C18.77 68.5729 18.882 68.6509 18.9562 68.7602C19.0303 68.8695 19.0613 69.0024 19.0432 69.1332C19.0251 69.264 18.9592 69.3835 18.8581 69.4686C18.7571 69.5536 18.6282 69.5982 18.4962 69.5938C12.5665 69.0046 7.04237 70.9149 1.32379 72.0717C0.643014 72.1985 0.521256 71.148 1.18864 71.0092C7.0208 69.8334 12.6225 67.9444 18.6418 68.5414L18.4962 69.5938C13.5076 68.7488 8.85509 66.6115 3.86647 65.7664C3.30073 65.6704 3.24808 64.718 3.8082 64.7125C11.6795 64.7104 19.5605 65.1153 27.4219 64.9354L27.2869 65.9491L17.0608 60.9102C16.9559 60.8621 16.8694 60.7813 16.8142 60.6799C16.7591 60.5785 16.7383 60.462 16.7549 60.3477C16.7715 60.2335 16.8247 60.1277 16.9065 60.0463C16.9883 59.9648 17.0943 59.912 17.2085 59.8958C24.6984 58.985 32.2621 58.9489 39.7913 58.7492L39.657 59.7756C32.0741 57.1857 24.1598 55.6932 16.1544 55.3434C15.5153 55.3023 15.5931 54.4064 16.1596 54.2859C35.3358 50.5 54.4847 54.0521 73.6091 56.7012L73.4635 57.7536C52.804 52.6803 31.652 53.2129 10.5538 53.3349C10.4247 53.3337 10.3005 53.2858 10.204 53.2001C10.1075 53.1144 10.0453 52.9967 10.0289 52.8687C10.0125 52.7407 10.0431 52.611 10.1148 52.5038C10.1866 52.3965 10.2948 52.3189 10.4193 52.2852C46.7254 44.1005 65.1913 44.1065 102.011 44.9748L101.865 46.0273C70.7282 41.737 58.3026 40.4036 26.8234 39.8259L26.969 38.7734C45.3368 39.9487 63.6196 37.2821 81.8451 35.421C81.986 35.4031 82.1282 35.4419 82.2405 35.5288C82.3528 35.6158 82.426 35.7438 82.4439 35.8847C82.4618 36.0256 82.423 36.1678 82.3361 36.2801C82.2491 36.3924 82.1211 36.4655 81.9802 36.4835L81.993 36.4828Z" fill="#4F4F4E"/>
<path d="M113.214 44.8296L114.336 45.246C114.37 45.2534 114.4 45.2619 114.427 45.2712C115.309 45.5389 115.978 45.9532 116.435 46.5143C116.9 47.0734 117.085 47.788 116.992 48.6581C116.891 49.5301 116.516 50.3387 115.867 51.0839C115.444 51.5781 114.886 51.998 114.192 52.3436C113.496 52.6816 112.749 52.9317 111.952 53.0938C111.946 53.1033 111.944 53.1081 111.944 53.1081L111.947 53.1194C110.947 53.3089 110.46 53.36 110.486 53.2727C110.111 53.2874 109.789 53.2886 109.52 53.2763L107.54 52.9086C107.136 52.7775 106.77 52.6045 106.441 52.3898C106.43 52.3765 106.416 52.3681 106.398 52.3643C106.389 52.3587 106.381 52.3445 106.376 52.3218C106.36 52.3256 106.343 52.3219 106.324 52.3106C106.313 52.2974 106.306 52.287 106.304 52.2794C106.128 52.155 106.009 52.0039 105.947 51.826L105.927 51.7465C105.875 51.5099 105.818 51.2221 105.756 50.8831C105.687 50.5461 105.671 50.26 105.708 50.0249C105.744 49.7576 105.869 49.6454 106.081 49.6882C106.299 49.7214 106.487 49.7785 106.645 49.8594C106.666 49.8783 106.685 49.8896 106.702 49.8933C106.719 49.897 106.737 49.9045 106.756 49.9158C107.153 50.1133 107.585 50.2614 108.054 50.36C109.098 50.5702 110.281 50.4957 111.6 50.1364C111.64 50.1021 111.698 50.047 111.776 49.9709C112.029 49.7293 112.038 49.481 111.804 49.2261C111.787 49.2224 111.773 49.2139 111.761 49.2007C111.75 49.1875 111.737 49.1705 111.724 49.1497C111.616 49.0724 110.706 48.8077 108.995 48.3556C107.314 47.7347 106.326 47.2884 106.032 47.0166C105.332 46.3883 104.988 45.6696 105 44.8604C105.011 44.0437 105.293 43.2667 105.847 42.5294C106.812 41.2203 108.674 40.3606 111.431 39.9505C111.781 39.9662 112.098 39.9906 112.38 40.0236C112.481 40.0384 112.637 40.0672 112.85 40.11C113.049 40.1642 113.284 40.2173 113.555 40.2693C113.883 40.323 114.04 40.4324 114.025 40.5973C114.046 40.6161 114.072 40.6378 114.102 40.6623C114.315 40.834 114.513 41.09 114.696 41.4304C114.88 41.7707 114.877 42.0777 114.689 42.3513C114.672 42.3798 114.66 42.3987 114.655 42.4082C114.483 42.6211 114.196 42.7302 113.795 42.7355C113.349 42.7277 112.92 42.7359 112.507 42.7602L111.805 42.7572C110.93 42.8666 110.296 42.9713 109.902 43.0713C109.174 43.5383 109.49 44.0022 110.848 44.4633C110.97 44.5291 111.758 44.6512 113.214 44.8296Z" fill="#4F4F4E"/>
<path d="M118.694 41.866C118.558 41.1749 118.476 40.5954 118.446 40.1275C118.419 39.6425 118.434 39.2559 118.489 38.9677C118.532 38.7231 118.612 38.5456 118.729 38.4353C118.888 38.2983 119.13 38.1723 119.455 38.0574C119.781 37.9425 120.041 37.8723 120.236 37.847C120.511 37.8175 120.743 37.8593 120.933 37.9722C121.128 38.0757 121.259 38.3528 121.325 38.8035C121.429 39.527 121.559 40.2797 121.718 41.0617C121.901 41.0231 122.086 40.9883 122.271 40.9572C122.574 40.9125 122.885 40.8981 123.204 40.914C123.52 40.9222 123.788 40.979 124.009 41.0843C124.166 41.1652 124.312 41.3257 124.445 41.5658C124.563 41.7776 124.653 42.0331 124.712 42.3322C124.761 42.6182 124.773 42.8569 124.749 43.0483C124.716 43.2664 124.634 43.388 124.503 43.4131C124.443 43.4285 124.375 43.4335 124.302 43.428C124.247 43.4339 124.165 43.4305 124.057 43.4176C123.564 43.3816 123.026 43.4215 122.443 43.5374L122.33 43.5662C122.349 43.6419 122.372 43.7167 122.399 43.7905C122.9 45.5735 123.485 47.1137 124.153 48.411C124.219 48.5472 124.292 48.69 124.37 48.8394C124.454 48.9793 124.519 49.124 124.565 49.2735C124.636 49.5537 124.585 49.7803 124.411 49.9534C124.238 50.1265 124.016 50.2552 123.748 50.3396C123.479 50.424 123.15 50.4915 122.759 50.5423C122.375 50.5835 122.115 50.5769 121.981 50.5225C121.74 50.4305 121.529 50.2541 121.35 49.9933C121.169 49.7249 121.017 49.4574 120.893 49.1907C120.644 48.6895 120.381 48.0349 120.104 47.2268C119.833 46.4169 119.583 45.5737 119.352 44.6972C119.308 44.5553 119.268 44.4124 119.231 44.2685L119.175 44.2829C118.73 44.404 118.301 44.5572 117.889 44.7425C117.781 44.7941 117.712 44.8237 117.682 44.8314C117.613 44.8487 117.546 44.8537 117.48 44.8464C117.429 44.8352 117.373 44.8051 117.312 44.7561C117.27 44.7183 117.22 44.6503 117.163 44.552C117.062 44.3761 116.986 44.1699 116.934 43.9332C116.874 43.6985 116.842 43.4769 116.837 43.2685C116.829 43.045 116.93 42.8418 117.142 42.6591C117.261 42.5564 117.4 42.4526 117.559 42.3478C117.672 42.2867 117.84 42.2036 118.064 42.0986C118.158 42.0584 118.327 41.9915 118.569 41.8977L118.694 41.866Z" fill="#4F4F4E"/>
<path d="M133.06 38.6644C133.191 38.6715 133.292 38.6901 133.364 38.7201C133.632 38.8214 133.85 39.0158 134.02 39.3031C134.195 39.581 134.343 39.8619 134.464 40.1456C134.689 40.6848 134.917 41.3888 135.145 42.2577C135.374 43.1265 135.573 44.0353 135.741 44.984C135.915 45.9232 135.898 46.6167 135.689 47.0647C135.618 47.3246 135.502 47.5192 135.342 47.6487C135.17 47.7971 134.946 47.9145 134.669 48.0008C134.403 48.0927 134.16 48.1543 133.943 48.1854C133.63 48.2245 133.37 48.1857 133.163 48.069C132.956 47.9523 132.837 47.6723 132.805 47.229C132.305 47.8638 131.87 48.2122 131.499 48.2742C130.915 48.3901 130.268 48.3006 129.556 48.0058C128.792 47.6922 128.158 47.1963 127.655 46.5179C127.158 45.8301 126.759 45.1172 126.459 44.3794C126.256 43.8666 126.068 43.2534 125.895 42.5397C125.722 41.826 125.703 41.1819 125.839 40.6072C125.893 40.408 126.009 40.274 126.185 40.2052C126.476 40.0828 126.798 40.0494 127.151 40.1049C127.509 40.1509 127.789 40.237 127.99 40.3632C128.081 40.4046 128.149 40.4678 128.195 40.5529C128.271 40.6625 128.313 40.7931 128.319 40.9446C128.333 41.0943 128.341 41.2373 128.343 41.3737C128.349 41.872 128.409 42.3607 128.522 42.8396C128.634 43.311 128.757 43.7634 128.891 44.1968C129.103 44.6186 129.339 44.9455 129.6 45.1776C130.174 45.7572 130.717 45.9901 131.228 45.8764C131.739 45.7626 132.008 45.376 132.034 44.7165C132.053 44.1878 131.961 43.542 131.759 42.7792C131.754 42.7564 131.747 42.7299 131.739 42.6997C131.532 42.0751 131.306 41.4877 131.062 40.9372C130.999 40.8161 130.902 40.627 130.773 40.3698C130.62 40.0862 130.573 39.8845 130.631 39.765C130.648 39.7365 130.665 39.708 130.682 39.6795C130.713 39.5183 130.794 39.3768 130.925 39.2551C131.142 39.0629 131.408 38.9188 131.722 38.8229C131.954 38.7557 132.188 38.7084 132.423 38.681C132.527 38.6465 132.626 38.6215 132.718 38.606C132.834 38.5847 132.948 38.6042 133.06 38.6644Z" fill="#4F4F4E"/>
<path d="M138.685 41.1773C138.803 40.4701 139.057 39.9623 139.446 39.6538C139.843 39.3435 140.259 39.2017 140.693 39.2285C141.132 39.2458 141.535 39.4177 141.9 39.7441C142.263 40.063 142.476 40.4885 142.538 41.0207C142.58 41.5018 142.517 41.9691 142.35 42.4226C142.183 42.8761 141.847 43.2516 141.343 43.5491C140.579 44.001 139.914 43.8917 139.349 43.2212C138.789 42.5412 138.568 41.8599 138.685 41.1773ZM143.938 43.7241C144.057 43.9359 144.196 44.1504 144.356 44.3677C144.523 44.5831 144.721 44.7264 144.948 44.7975C145.079 44.8368 145.279 44.8465 145.548 44.8265C145.827 44.8122 146.1 44.7629 146.369 44.6785C146.638 44.5941 146.858 44.4777 147.03 44.3292C147.21 44.1789 147.27 43.9901 147.213 43.7629C147.172 43.6361 147.117 43.5132 147.046 43.3941C146.976 43.275 146.907 43.1634 146.841 43.0595C146.24 41.9949 145.725 40.7311 145.297 39.268C144.877 37.803 144.388 35.388 143.832 32.023C143.787 31.6556 143.673 31.4305 143.491 31.3478C143.309 31.2652 143.081 31.2423 142.809 31.2793C142.621 31.3028 142.416 31.3509 142.192 31.4238C141.969 31.4966 141.784 31.5921 141.636 31.7101C141.51 31.8148 141.419 31.9667 141.365 32.1659C141.734 34.4098 141.915 35.6455 141.908 35.8729C141.859 35.8693 141.814 35.8686 141.774 35.8706C140.976 35.8395 140.196 36.0376 139.434 36.4649C138.561 36.9608 137.837 37.6324 137.262 38.4797C137.173 38.607 137.084 38.7466 136.994 38.8985C136.79 39.2403 136.622 39.5934 136.489 39.9577C136.363 40.3201 136.259 40.689 136.178 41.0645C136.016 41.823 136.054 42.6074 136.292 43.4174C136.457 43.972 136.695 44.4353 137.007 44.8074C137.321 45.1871 137.707 45.468 138.164 45.6501C138.629 45.8302 139.105 45.9431 139.592 45.9886C140.235 46.0431 140.868 45.963 141.49 45.7484C142.111 45.5263 142.65 45.1879 143.106 44.7334C143.424 44.4271 143.701 44.0907 143.938 43.7241Z" fill="#4F4F4E"/>
<path d="M147.782 41.2726C147.413 40.1655 147.136 39.0145 146.954 37.8196C146.779 36.6227 146.761 35.7767 146.902 35.2816C147.048 34.7771 147.248 34.5044 147.504 34.4637C147.758 34.4153 148.003 34.3812 148.24 34.3614C148.456 34.3549 148.629 34.3552 148.76 34.3623C148.792 34.3622 148.835 34.3715 148.888 34.3902C148.914 34.3996 148.952 34.4222 149.002 34.458C149.002 34.458 149.044 34.4834 149.13 34.5343C149.149 34.5456 149.185 34.5767 149.238 34.6277C149.269 34.6522 149.299 34.6928 149.33 34.7495C149.364 34.8214 149.398 34.8933 149.433 34.9652C149.437 34.9803 149.466 35.0494 149.522 35.1723C149.552 35.2613 149.686 35.9931 149.922 37.3679C150.164 38.7331 150.625 40.2766 151.304 41.9983C151.344 42.1896 151.369 42.3809 151.377 42.5722C151.385 42.7635 151.379 42.8981 151.359 42.9759C151.317 43.0992 151.198 43.2143 150.999 43.3211C150.906 43.3688 150.8 43.4119 150.681 43.4502C150.568 43.4791 150.449 43.5051 150.326 43.5283C150.097 43.5784 149.848 43.6135 149.579 43.6334C149.382 43.6512 149.205 43.6519 149.048 43.6354C149.004 43.6223 148.969 43.6111 148.942 43.6017C148.918 43.5999 148.876 43.5783 148.817 43.5368C148.79 43.5274 148.752 43.5011 148.7 43.4577C148.702 43.4652 148.666 43.4341 148.592 43.3643C148.565 43.3549 148.535 43.3143 148.5 43.2424C148.472 43.1933 148.434 43.1223 148.386 43.0297C148.359 42.9559 148.158 42.3702 147.782 41.2726ZM146.85 30.5552C147.259 30.4513 147.638 30.5001 147.987 30.7016C148.344 30.9011 148.573 31.1977 148.673 31.5914C148.771 31.9776 148.711 32.3473 148.495 32.7006C148.284 33.0443 147.974 33.2681 147.565 33.372C147.171 33.472 146.796 33.4223 146.439 33.2228C146.088 33.0137 145.863 32.7162 145.765 32.33C145.665 31.9362 145.72 31.5675 145.931 31.2237C146.15 30.878 146.456 30.6552 146.85 30.5552Z" fill="#4F4F4E"/>
<path d="M151.823 37.4533C152.017 36.6302 152.283 35.9461 152.62 35.401C152.752 35.1902 152.838 35.0553 152.88 34.9964C153.432 34.1872 154.133 33.5498 154.982 33.0842C155.695 32.6855 156.439 32.4923 157.216 32.5046C157.584 32.524 157.972 32.623 158.38 32.8015C158.786 32.9724 159.117 33.1947 159.372 33.4685C159.653 33.7839 159.886 34.2084 160.07 34.742C160.342 35.5274 160.454 36.2688 160.405 36.9662C160.369 37.3946 160.269 37.827 160.106 38.2634C159.948 38.6904 159.771 39.0861 159.573 39.4506C159.274 39.9861 158.902 40.4754 158.459 40.9186C158.021 41.3522 157.506 41.6725 156.913 41.8794C156.296 42.0844 155.687 42.1625 155.087 42.1136C154.609 42.0737 154.152 41.9722 153.716 41.809C153.285 41.6363 152.918 41.3667 152.615 41.0002C152.309 40.6508 152.076 40.2102 151.917 39.6784C151.692 38.9213 151.661 38.1796 151.823 37.4533ZM154.124 37.7516C154.081 38.3751 154.36 38.9368 154.963 39.4367C155.573 39.9346 156.227 39.9218 156.924 39.3981C157.357 39.0705 157.636 38.6934 157.761 38.2666C157.884 37.8322 157.898 37.4096 157.802 36.9988C157.58 36.0636 156.934 35.6311 155.864 35.7015C154.794 35.7718 154.214 36.4552 154.124 37.7516Z" fill="#4F4F4E"/>
<path d="M97.1106 26.8956C96.727 26.155 97.1072 25.2359 97.9128 25.02L143.124 12.9057C144.481 12.5421 145.876 13.3473 146.239 14.7042L148.029 21.3816C148.392 22.7385 147.587 24.1332 146.23 24.4968L101.019 36.6111C100.213 36.827 99.4242 36.2211 99.3861 35.388C99.2359 32.0981 98.6254 29.8198 97.1106 26.8956Z" fill="#E6E255"/>
<path fill-rule="evenodd" clip-rule="evenodd" d="M143.453 14.1341L98.242 26.2484C98.2417 26.2485 98.2415 26.2486 98.2413 26.2486C98.2402 26.2502 98.2386 26.2527 98.237 26.2566C98.2335 26.2648 98.2318 26.2742 98.232 26.283C98.2322 26.2903 98.2338 26.2989 98.2398 26.3106C99.8393 29.3982 100.498 31.8563 100.657 35.33C100.657 35.3431 100.66 35.3514 100.664 35.3578C100.668 35.3656 100.674 35.3728 100.681 35.3782C100.684 35.3807 100.687 35.3821 100.689 35.3829C100.689 35.3829 100.689 35.3828 100.689 35.3827L145.901 23.2684C146.579 23.0866 146.982 22.3892 146.8 21.7108L145.011 15.0333C144.829 14.3549 144.132 13.9523 143.453 14.1341ZM97.9128 25.02C97.1072 25.2359 96.727 26.155 97.1106 26.8956C98.6254 29.8198 99.2359 32.0981 99.3861 35.388C99.4242 36.2211 100.213 36.827 101.019 36.6111L146.23 24.4968C147.587 24.1332 148.392 22.7385 148.029 21.3816L146.239 14.7042C145.876 13.3473 144.481 12.5421 143.124 12.9057L97.9128 25.02Z" fill="#4F4F4E"/>
<path d="M95.941 25.8668C96.4806 25.5393 97.1838 25.6546 97.5566 26.164C99.7125 29.1099 100.532 32.1693 100.138 35.7984C100.07 36.426 99.5186 36.8774 98.8876 36.8636L82.9146 36.5144C81.643 36.4866 81.1953 34.8156 82.2827 34.1558L95.941 25.8668Z" fill="#FCFBEA"/>
<path fill-rule="evenodd" clip-rule="evenodd" d="M96.5716 26.9717L82.9424 35.243L98.8812 35.5915C99.2209 32.3322 98.4954 29.6245 96.5716 26.9717ZM97.5566 26.164C97.1838 25.6546 96.4806 25.5393 95.941 25.8668L82.2827 34.1558C81.1953 34.8156 81.643 36.4866 82.9146 36.5144L98.8876 36.8636C99.5186 36.8774 100.07 36.426 100.138 35.7984C100.532 32.1693 99.7125 29.1099 97.5566 26.164Z" fill="#4F4F4E"/>
<path d="M86.729 32.1578L87.7643 36.0215L82.4171 35.3838L86.729 32.1578Z" fill="#4F4F4E"/>
<path fill-rule="evenodd" clip-rule="evenodd" d="M145.268 12.7994C144.59 12.9812 144.187 13.6785 144.369 14.3569L146.673 22.9558C146.855 23.6343 147.552 24.0369 148.231 23.8551C148.909 23.6733 149.312 22.976 149.13 22.2975L146.826 13.6986C146.644 13.0202 145.947 12.6176 145.268 12.7994Z" fill="#4F4F4E"/>
<path d="M145.927 15.2563C145.563 13.8994 146.369 12.5047 147.725 12.1411L150.182 11.4828C151.539 11.1193 152.934 11.9245 153.297 13.2813L154.943 19.4234C155.307 20.7803 154.501 22.175 153.145 22.5385L150.688 23.1968C149.331 23.5604 147.936 22.7552 147.573 21.3983L145.927 15.2563Z" fill="#FCFBEA"/>
<path fill-rule="evenodd" clip-rule="evenodd" d="M150.511 12.7112L148.055 13.3695C147.376 13.5513 146.973 14.2487 147.155 14.9271L148.801 21.0692C148.983 21.7476 149.68 22.1502 150.359 21.9684L152.815 21.3101C153.494 21.1283 153.896 20.431 153.715 19.7526L152.069 13.6105C151.887 12.9321 151.19 12.5295 150.511 12.7112ZM147.725 12.1411C146.369 12.5047 145.563 13.8994 145.927 15.2563L147.573 21.3983C147.936 22.7552 149.331 23.5604 150.688 23.1968L153.145 22.5385C154.501 22.175 155.307 20.7803 154.943 19.4234L153.297 13.2813C152.934 11.9245 151.539 11.1193 150.182 11.4828L147.725 12.1411Z" fill="#4F4F4E"/>
<path fill-rule="evenodd" clip-rule="evenodd" d="M145.815 16.9841L98.4844 29.6663L98.1553 28.4379L145.486 15.7557L145.815 16.9841Z" fill="#4F4F4E"/>
<path fill-rule="evenodd" clip-rule="evenodd" d="M146.85 20.8478L99.5196 33.5299L99.1904 32.3015L146.521 19.6194L146.85 20.8478Z" fill="#4F4F4E"/>
<path d="M4.97266 4.05172C5.07682 3.49183 5.14844 3.16631 5.1875 3.07516C5.31771 2.59339 5.60417 2.2223 6.04687 1.96188C6.21615 1.85771 6.57422 1.68193 7.12109 1.43454C8.38411 0.874641 9.74479 0.477505 11.2031 0.24313C12.6875 -0.0042654 14.1719 -0.0628591 15.6562 0.0673492C17.2057 0.197558 18.625 0.54261 19.9141 1.10251C21.3073 1.71448 22.4792 2.54131 23.4297 3.58297C23.8854 4.07777 24.2956 4.64417 24.6602 5.28219C25.0247 6.01136 25.2852 6.67542 25.4414 7.27438C25.6237 8.00355 25.6758 8.69365 25.5977 9.34469C25.4284 10.9463 24.4453 12.359 22.6484 13.583C20.8516 14.7939 19.3346 15.5556 18.0977 15.8681C16.7435 16.2067 15.1029 16.3434 13.1758 16.2783C13.0977 16.2653 12.987 16.2783 12.8437 16.3173C12.7005 16.3564 12.5833 16.3955 12.4922 16.4345C12.362 16.4996 12.2318 16.5778 12.1016 16.6689C11.8151 16.8903 11.5872 17.2614 11.418 17.7822C11.2747 18.2509 11.1771 18.7978 11.125 19.4228C11.099 19.8134 11.0859 20.3864 11.0859 21.1416C11.0859 21.415 11.0924 21.6689 11.1055 21.9033C11.1185 22.1377 11.1315 22.3395 11.1445 22.5088C11.1576 22.691 11.151 22.8538 11.125 22.997C11.0859 23.1272 11.0208 23.2249 10.9297 23.29C10.8255 23.3681 10.7148 23.4072 10.5977 23.4072C10.4154 23.4332 10.2591 23.4463 10.1289 23.4463C9.60807 23.4463 9.04167 23.4072 8.42969 23.3291C7.81771 23.2379 7.30339 23.0361 6.88672 22.7236C6.76953 22.6585 6.65885 22.5543 6.55469 22.4111C6.3724 22.1897 6.1901 21.734 6.00781 21.0439C5.85156 20.5101 5.69531 19.8134 5.53906 18.9541C5.38281 18.277 5.2526 17.5543 5.14844 16.7861C5.01823 15.9918 4.94661 15.4905 4.93359 15.2822C4.93359 15.2301 4.93359 15.165 4.93359 15.0869C4.92057 15.0478 4.90755 15.0153 4.89453 14.9892C4.89453 14.9502 4.89453 14.9176 4.89453 14.8916C4.89453 14.8004 4.88802 14.7353 4.875 14.6963C4.875 14.6702 4.86849 14.6442 4.85547 14.6181C4.85547 14.5921 4.85547 14.5595 4.85547 14.5205C4.81641 14.1168 4.77734 13.7067 4.73828 13.29C4.69922 12.8603 4.67318 12.4306 4.66016 12.0009C4.59505 11.2197 4.55599 10.3278 4.54297 9.32516C4.54297 8.25745 4.57552 7.35902 4.64062 6.62985C4.70573 5.62724 4.81641 4.76787 4.97266 4.05172ZM17.9609 5.37985C16.6068 4.80693 14.9076 4.73532 12.8633 5.16501C12.6549 5.24313 12.4857 5.30823 12.3555 5.36032C11.8737 5.59469 11.5026 5.9723 11.2422 6.49313C11.0469 6.92282 10.9557 7.58688 10.9687 8.48532C10.9818 9.38376 11.1055 10.0218 11.3398 10.3994C11.5091 10.6338 11.6719 10.8095 11.8281 10.9267C12.2708 11.3304 13.1562 11.5192 14.4844 11.4931C15.1745 11.5062 15.9102 11.4541 16.6914 11.3369C17.4857 11.2197 18.1628 10.9072 18.7227 10.3994C19.0482 10.0739 19.3021 9.71579 19.4844 9.32516C19.6667 8.92152 19.7578 8.49183 19.7578 8.0361C19.7318 7.04652 19.276 6.23922 18.3906 5.61422C18.2604 5.52308 18.1172 5.44495 17.9609 5.37985Z" fill="#4F4F4E"/>
<path d="M31.9148 16.6494C31.9539 16.7796 31.9995 16.9228 32.0516 17.0791C32.3901 18.0296 33.1388 18.7522 34.2977 19.247C35.4695 19.7418 36.5828 19.9306 37.6375 19.8134C38.4708 19.7483 39.3042 19.2796 40.1375 18.4072C40.9839 17.5348 42.0711 17.5869 43.3992 18.5634C43.9852 18.941 43.9331 19.54 43.243 20.3603C42.5529 21.1806 42.006 21.734 41.6023 22.0205C41.3289 22.2158 41.049 22.3851 40.7625 22.5283C40.0073 22.9189 39.2456 23.1533 38.4773 23.2314C37.7091 23.2965 36.9539 23.29 36.2117 23.2119C35.1961 23.1207 34.2195 22.8929 33.282 22.5283C32.5529 22.2418 31.8497 21.8642 31.1727 21.3955C30.5086 20.9267 29.9227 20.3473 29.4148 19.6572C28.4643 18.3942 27.8263 16.9944 27.5008 15.458C26.993 13.0882 27.5789 11.109 29.2586 9.52047C30.1049 8.71318 31.0555 8.11422 32.1102 7.7236C33.1779 7.31995 34.4474 7.02047 35.9188 6.82516C37.3901 6.62985 38.881 6.92933 40.3914 7.7236C41.9148 8.50485 42.8589 9.63766 43.2234 11.122C43.588 12.6064 43.6531 13.6416 43.4188 14.2275C43.1844 14.8134 42.7807 15.1845 42.2078 15.3408C41.6479 15.497 38.2169 15.9332 31.9148 16.6494ZM40.157 12.6064C39.6102 11.4085 38.6206 10.8551 37.1883 10.9463C35.756 11.0244 34.6427 11.2067 33.8484 11.4931C33.0542 11.7796 32.4682 12.4046 32.0906 13.3681C32.0516 13.4332 32.019 13.4918 31.993 13.5439L40.157 12.6064Z" fill="#4F4F4E"/>
<path d="M47.7633 23.1142C47.568 23.0491 47.4117 22.9775 47.2945 22.8994C46.9169 22.6259 46.6435 22.2288 46.4742 21.708C46.305 21.1741 46.1878 20.6533 46.1227 20.1455C45.9794 19.1819 45.9013 17.9515 45.8883 16.4541C45.8753 14.9567 45.9208 13.4137 46.025 11.8252C46.1422 10.2236 46.4612 9.10381 46.982 8.46579C47.2034 8.07516 47.4703 7.80823 47.7828 7.66501C48.1214 7.49573 48.525 7.39808 48.9938 7.37204C49.4625 7.33297 49.8792 7.33297 50.2438 7.37204C50.7776 7.43714 51.1813 7.60641 51.4547 7.87985C51.7411 8.15329 51.8193 8.65459 51.6891 9.38376C52.7698 8.56344 53.6227 8.17933 54.2477 8.23141C55.2242 8.2835 56.2333 8.69365 57.275 9.46188C58.3688 10.2822 59.176 11.3499 59.6969 12.665C60.2307 13.9671 60.5888 15.2757 60.7711 16.5908C60.9013 17.5022 60.9599 18.57 60.9469 19.7939C60.9339 21.0179 60.693 22.066 60.2242 22.9384C60.055 23.2379 59.8206 23.4072 59.5211 23.4463C59.0003 23.5244 58.4599 23.4528 57.9 23.2314C57.3401 22.997 56.9234 22.7366 56.65 22.4502C56.5328 22.346 56.4547 22.2158 56.4156 22.0595C56.3375 21.8512 56.318 21.6233 56.357 21.3759C56.4091 21.1285 56.4547 20.8942 56.4938 20.6728C56.6891 19.8655 56.7932 19.0582 56.8063 18.2509C56.8193 17.4306 56.8063 16.6429 56.7672 15.8877C56.6109 15.1194 56.3701 14.4944 56.0445 14.0127C55.3544 12.8408 54.5667 12.2418 53.6813 12.2158C52.8089 12.1897 52.2229 12.7041 51.9234 13.7588C51.676 14.6051 51.5589 15.6858 51.5719 17.0009C51.5719 17.04 51.5719 17.0856 51.5719 17.1377C51.65 18.2314 51.7737 19.2731 51.943 20.2627C51.982 20.484 52.0602 20.8226 52.1773 21.2783C52.3076 21.8121 52.301 22.1637 52.1578 22.333C52.1188 22.372 52.0797 22.4111 52.0406 22.4502C51.9234 22.6976 51.7281 22.8929 51.4547 23.0361C51.025 23.2575 50.5432 23.3812 50.0094 23.4072C49.6057 23.4202 49.2086 23.4007 48.818 23.3486C48.6357 23.3616 48.4599 23.3616 48.2906 23.3486C48.0953 23.3356 47.9195 23.2575 47.7633 23.1142Z" fill="#4F4F4E"/>
<path d="M75.7797 6.68844C76.4958 6.84469 77.0622 7.04652 77.4789 7.29391C77.9737 7.59339 78.2211 7.94495 78.2211 8.3486C78.2211 8.83037 78.2016 9.21449 78.1625 9.50094C78.1365 9.77438 78.0062 10.1194 77.7719 10.5361C77.4333 11.1351 77.1013 11.4345 76.7758 11.4345C76.4893 11.4345 76.2094 11.389 75.9359 11.2978C75.6625 11.1937 75.3891 11.096 75.1156 11.0048C74.5557 10.8226 73.8005 10.7509 72.85 10.79C71.8995 10.816 71.001 11.0179 70.1547 11.3955C69.3083 11.7731 68.5401 12.3785 67.85 13.2119C67.1729 14.0322 67.1794 15.4319 67.8695 17.4111C68.195 18.3877 68.8721 19.0908 69.9008 19.5205C70.9294 19.9371 71.9776 20.0934 73.0453 19.9892C73.8656 19.9111 74.6338 19.3968 75.35 18.4463C76.0661 17.4827 77.238 17.4957 78.8656 18.4853C79.4385 18.8629 79.3799 19.4749 78.6898 20.3213C78.0128 21.1546 77.4724 21.7145 77.0687 22.0009C76.7823 22.2093 76.5023 22.3785 76.2289 22.5088C75.4737 22.9124 74.712 23.1468 73.9437 23.2119C73.1885 23.277 72.4333 23.277 71.6781 23.2119C70.6625 23.1207 69.6924 22.8864 68.768 22.5088C68.0388 22.2223 67.3357 21.8447 66.6586 21.3759C65.9945 20.8942 65.4086 20.3017 64.9008 19.5986C63.9503 18.3226 63.3122 16.9033 62.9867 15.3408C62.4789 12.9319 63.0648 10.9202 64.7445 9.30563C65.5909 8.48532 66.5414 7.87334 67.5961 7.46969C68.6638 7.05303 69.699 6.76657 70.7016 6.61032C71.5219 6.48011 72.3682 6.41501 73.2406 6.41501C74.113 6.41501 74.9594 6.50615 75.7797 6.68844Z" fill="#4F4F4E"/>
<path d="M81.2961 18.583C81.1529 16.6429 81.1789 14.6702 81.3742 12.665C81.5826 10.6598 81.9016 9.2861 82.3313 8.54391C82.774 7.7887 83.2102 7.43063 83.6398 7.46969C84.0695 7.49573 84.4797 7.54131 84.8703 7.60641C85.2219 7.68454 85.5018 7.75615 85.7102 7.82126C85.7622 7.83428 85.8273 7.86683 85.9055 7.91891C85.9445 7.94495 85.9966 7.99704 86.0617 8.07516C86.0617 8.07516 86.1203 8.13376 86.2375 8.25094C86.2635 8.27699 86.3091 8.34209 86.3742 8.44626C86.4133 8.49834 86.4458 8.57646 86.4719 8.68063C86.4979 8.81084 86.524 8.94105 86.55 9.07126C86.55 9.0973 86.5695 9.221 86.6086 9.44235C86.6216 9.5986 86.537 10.8356 86.3547 13.1533C86.1854 15.458 86.2961 18.1403 86.6867 21.2002C86.6737 21.5257 86.6346 21.8447 86.5695 22.1572C86.5044 22.4697 86.4393 22.6845 86.3742 22.8017C86.257 22.984 86.0162 23.1207 85.6516 23.2119C85.4823 23.2509 85.2935 23.277 85.0852 23.29C84.8898 23.29 84.688 23.2835 84.4797 23.2705C84.0891 23.2575 83.6724 23.2119 83.2297 23.1338C82.9042 23.0817 82.6177 23.0101 82.3703 22.9189C82.3052 22.8798 82.2531 22.8473 82.2141 22.8213C82.175 22.8082 82.1164 22.7562 82.0383 22.665C81.9992 22.639 81.9471 22.5804 81.882 22.4892C81.882 22.5022 81.8365 22.4371 81.7453 22.2939C81.7063 22.2679 81.6737 22.1897 81.6477 22.0595C81.6216 21.9684 81.5891 21.8382 81.55 21.6689C81.537 21.5387 81.4523 20.5101 81.2961 18.583ZM84.1867 0.887662C84.8898 0.887662 85.4823 1.12204 85.9641 1.59079C86.4589 2.05954 86.7063 2.63245 86.7063 3.30954C86.7063 3.9736 86.4589 4.54652 85.9641 5.02829C85.4823 5.49704 84.8898 5.73141 84.1867 5.73141C83.5096 5.73141 82.9237 5.49704 82.4289 5.02829C81.9471 4.54652 81.7063 3.9736 81.7063 3.30954C81.7063 2.63245 81.9471 2.05954 82.4289 1.59079C82.9237 1.12204 83.5096 0.887662 84.1867 0.887662Z" fill="#4F4F4E"/>
<path d="M93.668 2.91891C93.3945 5.6012 93.2969 8.55042 93.375 11.7666C93.4531 14.9697 93.7526 17.8017 94.2734 20.2627C94.3125 20.5231 94.3646 20.7965 94.4297 21.083C94.4948 21.3564 94.5404 21.6298 94.5664 21.9033C94.5664 22.3851 94.3971 22.7366 94.0586 22.958C93.7201 23.1663 93.3294 23.29 92.8867 23.3291C92.444 23.3551 92.0078 23.316 91.5781 23.2119C91.1484 23.1077 90.8424 22.9775 90.6602 22.8213C90.3216 22.5608 90.0677 22.1702 89.8984 21.6494C89.7292 21.1285 89.599 20.6207 89.5078 20.1259C89.3255 19.1754 89.1823 17.9645 89.0781 16.4931C88.987 15.0088 88.9284 13.4788 88.9023 11.9033C88.8893 10.3278 88.9154 8.81735 88.9805 7.37204C89.0456 5.92672 89.1562 4.76136 89.3125 3.87594C89.4427 3.04261 89.6055 2.39157 89.8008 1.92282C89.957 1.53219 90.1523 1.26527 90.3867 1.12204C90.6732 0.965787 90.9987 0.874641 91.3633 0.8486C91.7409 0.809537 92.0794 0.816048 92.3789 0.868131C92.8086 0.920214 93.1471 1.08297 93.3945 1.35641C93.6549 1.61683 93.7461 2.13766 93.668 2.91891Z" fill="#4F4F4E"/>
</svg>
