<svg width="40" height="40" viewBox="0 0 40 40" fill="none" xmlns="http://www.w3.org/2000/svg">
<path d="M20.0003 6.66671C23.667 6.66671 26.667 9.66671 26.667 13.3334C26.667 16.8334 23.167 22.5 20.0003 26.5C16.8337 22.3334 13.3337 16.8334 13.3337 13.3334C13.3337 9.66671 16.3337 6.66671 20.0003 6.66671ZM20.0003 3.33337C14.5003 3.33337 10.0003 7.83337 10.0003 13.3334C10.0003 20.8334 20.0003 31.6667 20.0003 31.6667C20.0003 31.6667 30.0003 20.6667 30.0003 13.3334C30.0003 7.83337 25.5003 3.33337 20.0003 3.33337ZM20.0003 10C18.167 10 16.667 11.5 16.667 13.3334C16.667 15.1667 18.167 16.6667 20.0003 16.6667C21.8337 16.6667 23.3337 15.1667 23.3337 13.3334C23.3337 11.5 21.8337 10 20.0003 10ZM33.3337 31.6667C33.3337 35.3334 27.3337 38.3334 20.0003 38.3334C12.667 38.3334 6.66699 35.3334 6.66699 31.6667C6.66699 29.5 8.66699 27.6667 11.8337 26.3334L12.8337 27.8334C11.167 28.6667 10.0003 29.6667 10.0003 30.8334C10.0003 33.1667 14.5003 35 20.0003 35C25.5003 35 30.0003 33.1667 30.0003 30.8334C30.0003 29.6667 28.8337 28.6667 27.0003 27.8334L28.0003 26.3334C31.3337 27.6667 33.3337 29.5 33.3337 31.6667Z" fill="#4F4F4E"/>
</svg>
