<svg width="40" height="40" viewBox="0 0 40 40" fill="none" xmlns="http://www.w3.org/2000/svg">
<path d="M38.3337 18.3334H35.0003V15H31.667V18.3334H28.3337V21.6667H31.667V25H35.0003V21.6667H38.3337V18.3334ZM13.3337 18.3334V22.3334H20.0003C19.667 24 18.0003 27.3334 13.3337 27.3334C9.33366 27.3334 6.16699 24 6.16699 20C6.16699 16 9.33366 12.6667 13.3337 12.6667C15.667 12.6667 17.167 13.6667 18.0003 14.5L21.167 11.5C19.167 9.50004 16.5003 8.33337 13.3337 8.33337C6.83366 8.33337 1.66699 13.5 1.66699 20C1.66699 26.5 6.83366 31.6667 13.3337 31.6667C20.0003 31.6667 24.5003 27 24.5003 20.3334C24.5003 19.5 24.5003 19 24.3337 18.3334H13.3337Z" fill="#4F4F4E"/>
</svg>
