<svg width="40" height="40" viewBox="0 0 40 40" fill="none" xmlns="http://www.w3.org/2000/svg">
<path d="M16.6663 25L25.3163 20L16.6663 15V25ZM35.933 11.95C36.1497 12.7334 36.2997 13.7834 36.3997 15.1167C36.5163 16.45 36.5663 17.6 36.5663 18.6L36.6663 20C36.6663 23.65 36.3997 26.3334 35.933 28.05C35.5163 29.55 34.5497 30.5167 33.0497 30.9334C32.2663 31.15 30.833 31.3 28.633 31.4C26.4663 31.5167 24.483 31.5667 22.6497 31.5667L19.9997 31.6667C13.0163 31.6667 8.66634 31.4 6.94967 30.9334C5.44967 30.5167 4.48301 29.55 4.06634 28.05C3.84967 27.2667 3.69967 26.2167 3.59967 24.8834C3.48301 23.55 3.43301 22.4 3.43301 21.4L3.33301 20C3.33301 16.35 3.59967 13.6667 4.06634 11.95C4.48301 10.45 5.44967 9.48337 6.94967 9.06671C7.73301 8.85004 9.16634 8.70004 11.3663 8.60004C13.533 8.48337 15.5163 8.43337 17.3497 8.43337L19.9997 8.33337C26.983 8.33337 31.333 8.60004 33.0497 9.06671C34.5497 9.48337 35.5163 10.45 35.933 11.95Z" fill="#4F4F4E"/>
</svg>
